<svg xmlns="http://www.w3.org/2000/svg" xmlns:xlink="http://www.w3.org/1999/xlink" zoomAndPan="magnify" viewBox="0 0 810 809.999993" preserveAspectRatio="xMidYMid meet" version="1.0"><defs><g/></defs><g fill="#ffffff" fill-opacity="1"><g transform="translate(272.936387, 419.258327)"><g><path d="M 2.4375 -9.21875 L 4.421875 -9.21875 L 5.421875 -4.390625 C 6.054688 -3.660156 7.007812 -3.046875 8.28125 -2.546875 C 9.550781 -2.054688 10.863281 -1.8125 12.21875 -1.8125 C 16.507812 -1.8125 18.65625 -3.578125 18.65625 -7.109375 C 18.65625 -8.210938 18.25 -9.144531 17.4375 -9.90625 C 16.625 -10.675781 15.34375 -11.359375 13.59375 -11.953125 C 11.019531 -12.804688 9.164062 -13.5 8.03125 -14.03125 C 6.90625 -14.5625 5.953125 -15.1875 5.171875 -15.90625 C 4.398438 -16.625 3.78125 -17.492188 3.3125 -18.515625 C 2.851562 -19.535156 2.625 -20.796875 2.625 -22.296875 C 2.625 -24.941406 3.523438 -26.957031 5.328125 -28.34375 C 7.128906 -29.726562 9.765625 -30.421875 13.234375 -30.421875 C 15.742188 -30.421875 18.523438 -30.097656 21.578125 -29.453125 L 21.578125 -22.296875 L 19.578125 -22.296875 L 18.5625 -26.421875 C 17.039062 -27.523438 15.265625 -28.078125 13.234375 -28.078125 C 11.390625 -28.078125 9.972656 -27.738281 8.984375 -27.0625 C 8.003906 -26.382812 7.515625 -25.34375 7.515625 -23.9375 C 7.515625 -22.9375 7.925781 -22.078125 8.75 -21.359375 C 9.570312 -20.648438 10.859375 -20.019531 12.609375 -19.46875 C 16.023438 -18.34375 18.375 -17.363281 19.65625 -16.53125 C 20.9375 -15.707031 21.910156 -14.679688 22.578125 -13.453125 C 23.253906 -12.234375 23.59375 -10.789062 23.59375 -9.125 C 23.59375 -2.738281 19.832031 0.453125 12.3125 0.453125 C 10.59375 0.453125 8.835938 0.304688 7.046875 0.015625 C 5.265625 -0.273438 3.726562 -0.660156 2.4375 -1.140625 Z M 2.4375 -9.21875 "/></g></g></g><g fill="#ffffff" fill-opacity="1"><g transform="translate(298.474841, 419.258327)"><g><path d="M 9.6875 -15.078125 C 9.6875 -10.304688 10.335938 -6.898438 11.640625 -4.859375 C 12.953125 -2.816406 15.03125 -1.796875 17.875 -1.796875 C 20.695312 -1.796875 22.757812 -2.816406 24.0625 -4.859375 C 25.375 -6.910156 26.03125 -10.316406 26.03125 -15.078125 C 26.03125 -19.816406 25.375 -23.179688 24.0625 -25.171875 C 22.757812 -27.160156 20.695312 -28.15625 17.875 -28.15625 C 15.03125 -28.15625 12.953125 -27.160156 11.640625 -25.171875 C 10.335938 -23.179688 9.6875 -19.816406 9.6875 -15.078125 Z M 2.25 -15.078125 C 2.25 -25.304688 7.457031 -30.421875 17.875 -30.421875 C 23.007812 -30.421875 26.894531 -29.117188 29.53125 -26.515625 C 32.164062 -23.921875 33.484375 -20.109375 33.484375 -15.078125 C 33.484375 -9.972656 32.148438 -6.109375 29.484375 -3.484375 C 26.828125 -0.859375 22.957031 0.453125 17.875 0.453125 C 12.800781 0.453125 8.925781 -0.851562 6.25 -3.46875 C 3.582031 -6.09375 2.25 -9.960938 2.25 -15.078125 Z M 2.25 -15.078125 "/></g></g></g><g fill="#ffffff" fill-opacity="1"><g transform="translate(334.192799, 419.258327)"><g><path d="M 25.890625 -27.859375 L 21.859375 -28.4375 L 21.859375 -30.078125 L 32.5625 -30.078125 L 32.5625 -28.4375 L 28.703125 -27.859375 L 28.703125 0 L 26.078125 0 L 7.53125 -24.1875 L 7.53125 -2.25 L 11.5625 -1.640625 L 11.5625 0 L 0.875 0 L 0.875 -1.640625 L 4.734375 -2.25 L 4.734375 -27.859375 L 0.875 -28.4375 L 0.875 -30.078125 L 11.171875 -30.078125 L 25.890625 -10.859375 Z M 25.890625 -27.859375 "/></g></g></g><g fill="#ffffff" fill-opacity="1"><g transform="translate(367.35467, 419.258327)"><g><path d="M 23.484375 -15.03125 C 23.484375 -19.363281 22.6875 -22.539062 21.09375 -24.5625 C 19.507812 -26.59375 16.929688 -27.609375 13.359375 -27.609375 L 11.703125 -27.609375 L 11.703125 -2.5625 C 13.140625 -2.4375 14.441406 -2.375 15.609375 -2.375 C 17.546875 -2.375 19.078125 -2.789062 20.203125 -3.625 C 21.335938 -4.46875 22.164062 -5.78125 22.6875 -7.5625 C 23.21875 -9.351562 23.484375 -11.84375 23.484375 -15.03125 Z M 15.09375 -30.078125 C 20.488281 -30.078125 24.472656 -28.851562 27.046875 -26.40625 C 29.628906 -23.96875 30.921875 -20.234375 30.921875 -15.203125 C 30.921875 -10.046875 29.6875 -6.207031 27.21875 -3.6875 C 24.75 -1.164062 21.019531 0.09375 16.03125 0.09375 L 5.96875 0 L 0.8125 0 L 0.8125 -1.640625 L 4.65625 -2.25 L 4.65625 -27.859375 L 0.8125 -28.4375 L 0.8125 -30.078125 Z M 15.09375 -30.078125 "/></g></g></g><g fill="#ffffff" fill-opacity="1"><g transform="translate(400.516542, 419.258327)"><g><path d="M 18.796875 -2.734375 C 21.035156 -2.734375 22.765625 -3.359375 23.984375 -4.609375 C 25.210938 -5.867188 25.828125 -7.71875 25.828125 -10.15625 L 25.828125 -27.859375 L 21.796875 -28.4375 L 21.796875 -30.078125 L 32.015625 -30.078125 L 32.015625 -28.4375 L 28.609375 -27.859375 L 28.609375 -10.34375 C 28.609375 -6.875 27.609375 -4.210938 25.609375 -2.359375 C 23.609375 -0.503906 20.742188 0.421875 17.015625 0.421875 C 12.992188 0.421875 9.910156 -0.515625 7.765625 -2.390625 C 5.617188 -4.265625 4.546875 -6.972656 4.546875 -10.515625 L 4.546875 -27.859375 L 1.140625 -28.4375 L 1.140625 -30.078125 L 15.46875 -30.078125 L 15.46875 -28.4375 L 11.609375 -27.859375 L 11.609375 -10.203125 C 11.609375 -7.796875 12.21875 -5.945312 13.4375 -4.65625 C 14.65625 -3.375 16.441406 -2.734375 18.796875 -2.734375 Z M 18.796875 -2.734375 "/></g></g></g><g fill="#ffffff" fill-opacity="1"><g transform="translate(433.678413, 419.258327)"><g><path d="M 18.28125 0.453125 C 13.238281 0.453125 9.304688 -0.882812 6.484375 -3.5625 C 3.660156 -6.238281 2.25 -9.945312 2.25 -14.6875 C 2.25 -19.832031 3.597656 -23.738281 6.296875 -26.40625 C 8.992188 -29.082031 12.976562 -30.421875 18.25 -30.421875 C 21.738281 -30.421875 25.347656 -29.914062 29.078125 -28.90625 L 29.21875 -21.6875 L 27.203125 -21.6875 L 26.578125 -26.046875 C 24.597656 -27.390625 22.300781 -28.0625 19.6875 -28.0625 C 16.21875 -28.0625 13.679688 -26.976562 12.078125 -24.8125 C 10.484375 -22.65625 9.6875 -19.304688 9.6875 -14.765625 C 9.6875 -10.554688 10.519531 -7.351562 12.1875 -5.15625 C 13.863281 -2.957031 16.304688 -1.859375 19.515625 -1.859375 C 21.203125 -1.859375 22.675781 -2.082031 23.9375 -2.53125 C 25.195312 -2.976562 26.1875 -3.507812 26.90625 -4.125 L 27.625 -9.0625 L 29.671875 -9.0625 L 29.53125 -1.4375 C 28.1875 -0.914062 26.4375 -0.46875 24.28125 -0.09375 C 22.132812 0.269531 20.132812 0.453125 18.28125 0.453125 Z M 18.28125 0.453125 "/></g></g></g><g fill="#ffffff" fill-opacity="1"><g transform="translate(466.840295, 419.258327)"><g><path d="M 32.9375 -30.078125 L 32.9375 -28.4375 L 29.265625 -27.859375 L 19.328125 -19.09375 L 32.5625 -2.25 L 35.359375 -1.640625 L 35.359375 0 L 25.546875 0 L 14.3125 -14.484375 L 11.703125 -12.25 L 11.703125 -2.25 L 16.03125 -1.640625 L 16.03125 0 L 0.78125 0 L 0.78125 -1.640625 L 4.640625 -2.25 L 4.640625 -27.859375 L 0.78125 -28.4375 L 0.78125 -30.078125 L 15.578125 -30.078125 L 15.578125 -28.4375 L 11.703125 -27.859375 L 11.703125 -15.609375 L 25.40625 -27.859375 L 22.640625 -28.4375 L 22.640625 -30.078125 Z M 32.9375 -30.078125 "/></g></g></g><g fill="#ffffff" fill-opacity="1"><g transform="translate(515.694244, 419.258327)"><g><path d="M 9.5 -13.5 L 9.5 -1.796875 L 14.5 -1.1875 L 14.5 0 L 1.609375 0 L 1.609375 -1.1875 L 5.171875 -1.796875 L 5.171875 -28.3125 L 1.328125 -28.890625 L 1.328125 -30.078125 L 23.875 -30.078125 L 23.875 -22.875 L 22.40625 -22.875 L 21.6875 -27.75 C 20.007812 -27.957031 17.585938 -28.0625 14.421875 -28.0625 L 9.5 -28.0625 L 9.5 -15.515625 L 18.359375 -15.515625 L 19.0625 -19.109375 L 20.421875 -19.109375 L 20.421875 -9.875 L 19.0625 -9.875 L 18.359375 -13.5 Z M 9.5 -13.5 "/></g></g></g><g fill="#ffffff" fill-opacity="1"><g transform="translate(541.232698, 419.258327)"><g><path d="M 9.828125 -1.796875 L 13.671875 -1.1875 L 13.671875 0 L 1.65625 0 L 1.65625 -1.1875 L 5.515625 -1.796875 L 5.515625 -28.3125 L 1.65625 -28.890625 L 1.65625 -30.078125 L 13.671875 -30.078125 L 13.671875 -28.890625 L 9.828125 -28.3125 Z M 9.828125 -1.796875 "/></g></g></g><g fill="#ffffff" fill-opacity="1"><g transform="translate(556.524376, 419.258327)"><g><path d="M 14.15625 -28.890625 L 9.5 -28.3125 L 9.5 -1.921875 L 15.421875 -1.921875 C 18.609375 -1.921875 20.945312 -2.070312 22.4375 -2.375 L 23.828125 -8.640625 L 25.296875 -8.640625 L 24.890625 0 L 1.328125 0 L 1.328125 -1.1875 L 5.171875 -1.796875 L 5.171875 -28.3125 L 1.328125 -28.890625 L 1.328125 -30.078125 L 14.15625 -30.078125 Z M 14.15625 -28.890625 "/></g></g></g><g fill="#ffffff" fill-opacity="1"><g transform="translate(584.574073, 419.258327)"><g><path d="M 19.328125 0 L 18.546875 0 L 7.53125 -25.859375 L 7.53125 -1.796875 L 11.5625 -1.1875 L 11.5625 0 L 1.328125 0 L 1.328125 -1.1875 L 5.171875 -1.796875 L 5.171875 -28.3125 L 1.328125 -28.890625 L 1.328125 -30.078125 L 10.421875 -30.078125 L 20.203125 -7.203125 L 30.875 -30.078125 L 39.484375 -30.078125 L 39.484375 -28.890625 L 35.625 -28.3125 L 35.625 -1.796875 L 39.484375 -1.1875 L 39.484375 0 L 27.28125 0 L 27.28125 -1.1875 L 31.328125 -1.796875 L 31.328125 -25.859375 Z M 19.328125 0 "/></g></g></g><g fill="#ffffff" fill-opacity="1"><g transform="translate(288.82497, 443.941916)"><g><path d="M 8.171875 0 L 7.84375 0 L 3.1875 -10.921875 L 3.1875 -0.765625 L 4.890625 -0.5 L 4.890625 0 L 0.5625 0 L 0.5625 -0.5 L 2.1875 -0.765625 L 2.1875 -11.953125 L 0.5625 -12.203125 L 0.5625 -12.703125 L 4.40625 -12.703125 L 8.53125 -3.046875 L 13.046875 -12.703125 L 16.6875 -12.703125 L 16.6875 -12.203125 L 15.0625 -11.953125 L 15.0625 -0.765625 L 16.6875 -0.5 L 16.6875 0 L 11.53125 0 L 11.53125 -0.5 L 13.234375 -0.765625 L 13.234375 -10.921875 Z M 8.171875 0 "/></g></g></g><g fill="#ffffff" fill-opacity="1"><g transform="translate(306.078016, 443.941916)"><g><path d="M 2.78125 -6.375 C 2.78125 -4.332031 3.117188 -2.851562 3.796875 -1.9375 C 4.484375 -1.019531 5.550781 -0.5625 7 -0.5625 C 8.445312 -0.5625 9.515625 -1.019531 10.203125 -1.9375 C 10.890625 -2.851562 11.234375 -4.332031 11.234375 -6.375 C 11.234375 -8.394531 10.890625 -9.851562 10.203125 -10.75 C 9.523438 -11.644531 8.457031 -12.09375 7 -12.09375 C 5.539062 -12.09375 4.472656 -11.644531 3.796875 -10.75 C 3.117188 -9.851562 2.78125 -8.394531 2.78125 -6.375 Z M 0.796875 -6.375 C 0.796875 -10.6875 2.863281 -12.84375 7 -12.84375 C 9.050781 -12.84375 10.597656 -12.296875 11.640625 -11.203125 C 12.691406 -10.109375 13.21875 -8.5 13.21875 -6.375 C 13.21875 -4.207031 12.6875 -2.570312 11.625 -1.46875 C 10.5625 -0.363281 9.019531 0.1875 7 0.1875 C 4.988281 0.1875 3.453125 -0.363281 2.390625 -1.46875 C 1.328125 -2.570312 0.796875 -4.207031 0.796875 -6.375 Z M 0.796875 -6.375 "/></g></g></g><g fill="#ffffff" fill-opacity="1"><g transform="translate(320.090787, 443.941916)"><g><path d="M 2.984375 0 L 2.984375 -0.5 L 5 -0.765625 L 5 -11.890625 L 4.515625 -11.890625 C 2.921875 -11.890625 1.828125 -11.828125 1.234375 -11.703125 L 0.984375 -9.71875 L 0.34375 -9.71875 L 0.34375 -12.703125 L 11.53125 -12.703125 L 11.53125 -9.71875 L 10.890625 -9.71875 L 10.625 -11.703125 C 10.4375 -11.742188 10.023438 -11.78125 9.390625 -11.8125 C 8.753906 -11.851562 8.054688 -11.875 7.296875 -11.875 L 6.828125 -11.875 L 6.828125 -0.765625 L 8.84375 -0.5 L 8.84375 0 Z M 2.984375 0 "/></g></g></g><g fill="#ffffff" fill-opacity="1"><g transform="translate(331.943374, 443.941916)"><g><path d="M 4.15625 -0.765625 L 5.78125 -0.5 L 5.78125 0 L 0.703125 0 L 0.703125 -0.5 L 2.328125 -0.765625 L 2.328125 -11.953125 L 0.703125 -12.203125 L 0.703125 -12.703125 L 5.78125 -12.703125 L 5.78125 -12.203125 L 4.15625 -11.953125 Z M 4.15625 -0.765625 "/></g></g></g><g fill="#ffffff" fill-opacity="1"><g transform="translate(338.404976, 443.941916)"><g><path d="M 2.78125 -6.375 C 2.78125 -4.332031 3.117188 -2.851562 3.796875 -1.9375 C 4.484375 -1.019531 5.550781 -0.5625 7 -0.5625 C 8.445312 -0.5625 9.515625 -1.019531 10.203125 -1.9375 C 10.890625 -2.851562 11.234375 -4.332031 11.234375 -6.375 C 11.234375 -8.394531 10.890625 -9.851562 10.203125 -10.75 C 9.523438 -11.644531 8.457031 -12.09375 7 -12.09375 C 5.539062 -12.09375 4.472656 -11.644531 3.796875 -10.75 C 3.117188 -9.851562 2.78125 -8.394531 2.78125 -6.375 Z M 0.796875 -6.375 C 0.796875 -10.6875 2.863281 -12.84375 7 -12.84375 C 9.050781 -12.84375 10.597656 -12.296875 11.640625 -11.203125 C 12.691406 -10.109375 13.21875 -8.5 13.21875 -6.375 C 13.21875 -4.207031 12.6875 -2.570312 11.625 -1.46875 C 10.5625 -0.363281 9.019531 0.1875 7 0.1875 C 4.988281 0.1875 3.453125 -0.363281 2.390625 -1.46875 C 1.328125 -2.570312 0.796875 -4.207031 0.796875 -6.375 Z M 0.796875 -6.375 "/></g></g></g><g fill="#ffffff" fill-opacity="1"><g transform="translate(352.417747, 443.941916)"><g><path d="M 10.9375 -11.953125 L 9.234375 -12.203125 L 9.234375 -12.703125 L 13.5625 -12.703125 L 13.5625 -12.203125 L 11.9375 -11.953125 L 11.9375 0 L 11.015625 0 L 3.1875 -11.421875 L 3.1875 -0.765625 L 4.890625 -0.5 L 4.890625 0 L 0.5625 0 L 0.5625 -0.5 L 2.1875 -0.765625 L 2.1875 -11.953125 L 0.5625 -12.203125 L 0.5625 -12.703125 L 4.40625 -12.703125 L 10.9375 -3.296875 Z M 10.9375 -11.953125 "/></g></g></g><g fill="#ffffff" fill-opacity="1"><g transform="translate(366.430518, 443.941916)"><g/></g></g><g fill="#ffffff" fill-opacity="1"><g transform="translate(371.281457, 443.941916)"><g><path d="M 12.171875 -0.65625 C 11.429688 -0.414062 10.664062 -0.210938 9.875 -0.046875 C 9.09375 0.109375 8.242188 0.1875 7.328125 0.1875 C 5.273438 0.1875 3.671875 -0.363281 2.515625 -1.46875 C 1.367188 -2.582031 0.796875 -4.160156 0.796875 -6.203125 C 0.796875 -8.429688 1.351562 -10.09375 2.46875 -11.1875 C 3.582031 -12.289062 5.21875 -12.84375 7.375 -12.84375 C 8.914062 -12.84375 10.398438 -12.65625 11.828125 -12.28125 L 11.828125 -9.546875 L 11.203125 -9.546875 L 10.9375 -11.125 C 10.507812 -11.4375 9.988281 -11.675781 9.375 -11.84375 C 8.769531 -12.007812 8.128906 -12.09375 7.453125 -12.09375 C 5.828125 -12.09375 4.640625 -11.609375 3.890625 -10.640625 C 3.148438 -9.679688 2.78125 -8.207031 2.78125 -6.21875 C 2.78125 -4.363281 3.164062 -2.953125 3.9375 -1.984375 C 4.707031 -1.023438 5.847656 -0.546875 7.359375 -0.546875 C 7.890625 -0.546875 8.441406 -0.609375 9.015625 -0.734375 C 9.597656 -0.859375 10.039062 -1.007812 10.34375 -1.1875 L 10.34375 -4.796875 L 8.71875 -5.046875 L 8.71875 -5.546875 L 13.40625 -5.546875 L 13.40625 -5.046875 L 12.171875 -4.796875 Z M 12.171875 -0.65625 "/></g></g></g><g fill="#ffffff" fill-opacity="1"><g transform="translate(385.294227, 443.941916)"><g><path d="M 4.015625 -5.578125 L 4.015625 -0.765625 L 5.9375 -0.5 L 5.9375 0 L 0.6875 0 L 0.6875 -0.5 L 2.1875 -0.765625 L 2.1875 -11.953125 L 0.5625 -12.203125 L 0.5625 -12.703125 L 6.046875 -12.703125 C 7.640625 -12.703125 8.8125 -12.429688 9.5625 -11.890625 C 10.320312 -11.359375 10.703125 -10.5 10.703125 -9.3125 C 10.703125 -8.46875 10.472656 -7.738281 10.015625 -7.125 C 9.554688 -6.507812 8.921875 -6.082031 8.109375 -5.84375 L 11.546875 -0.765625 L 12.921875 -0.5 L 12.921875 0 L 9.875 0 L 6.296875 -5.578125 Z M 8.828125 -9.1875 C 8.828125 -10.144531 8.585938 -10.828125 8.109375 -11.234375 C 7.640625 -11.648438 6.816406 -11.859375 5.640625 -11.859375 L 4.015625 -11.859375 L 4.015625 -6.421875 L 5.6875 -6.421875 C 6.820312 -6.421875 7.628906 -6.628906 8.109375 -7.046875 C 8.585938 -7.472656 8.828125 -8.1875 8.828125 -9.1875 Z M 8.828125 -9.1875 "/></g></g></g><g fill="#ffffff" fill-opacity="1"><g transform="translate(398.236381, 443.941916)"><g><path d="M 4.375 -0.5 L 4.375 0 L 0.1875 0 L 0.1875 -0.5 L 1.625 -0.765625 L 5.953125 -12.8125 L 7.765625 -12.8125 L 12.265625 -0.765625 L 13.875 -0.5 L 13.875 0 L 8.5 0 L 8.5 -0.5 L 10.203125 -0.765625 L 8.9375 -4.421875 L 3.9375 -4.421875 L 2.65625 -0.765625 Z M 6.40625 -11.453125 L 4.21875 -5.28125 L 8.65625 -5.28125 Z M 6.40625 -11.453125 "/></g></g></g><g fill="#ffffff" fill-opacity="1"><g transform="translate(412.249152, 443.941916)"><g><path d="M 8.125 -8.9375 C 8.125 -9.988281 7.878906 -10.738281 7.390625 -11.1875 C 6.910156 -11.632812 6.097656 -11.859375 4.953125 -11.859375 L 4.015625 -11.859375 L 4.015625 -5.84375 L 5 -5.84375 C 6.070312 -5.84375 6.859375 -6.082031 7.359375 -6.5625 C 7.867188 -7.050781 8.125 -7.84375 8.125 -8.9375 Z M 4.015625 -4.984375 L 4.015625 -0.765625 L 6.03125 -0.5 L 6.03125 0 L 0.6875 0 L 0.6875 -0.5 L 2.1875 -0.765625 L 2.1875 -11.953125 L 0.5625 -12.203125 L 0.5625 -12.703125 L 5.359375 -12.703125 C 8.460938 -12.703125 10.015625 -11.457031 10.015625 -8.96875 C 10.015625 -7.664062 9.617188 -6.675781 8.828125 -6 C 8.046875 -5.320312 6.921875 -4.984375 5.453125 -4.984375 Z M 4.015625 -4.984375 "/></g></g></g><g fill="#ffffff" fill-opacity="1"><g transform="translate(423.040596, 443.941916)"><g><path d="M 0.5625 0 L 0.5625 -0.5 L 2.1875 -0.765625 L 2.1875 -11.953125 L 0.5625 -12.203125 L 0.5625 -12.703125 L 5.640625 -12.703125 L 5.640625 -12.203125 L 4.015625 -11.953125 L 4.015625 -6.96875 L 10 -6.96875 L 10 -11.953125 L 8.359375 -12.203125 L 8.359375 -12.703125 L 13.453125 -12.703125 L 13.453125 -12.203125 L 11.8125 -11.953125 L 11.8125 -0.765625 L 13.453125 -0.5 L 13.453125 0 L 8.359375 0 L 8.359375 -0.5 L 10 -0.765625 L 10 -6.109375 L 4.015625 -6.109375 L 4.015625 -0.765625 L 5.640625 -0.5 L 5.640625 0 Z M 0.5625 0 "/></g></g></g><g fill="#ffffff" fill-opacity="1"><g transform="translate(437.053367, 443.941916)"><g><path d="M 4.15625 -0.765625 L 5.78125 -0.5 L 5.78125 0 L 0.703125 0 L 0.703125 -0.5 L 2.328125 -0.765625 L 2.328125 -11.953125 L 0.703125 -12.203125 L 0.703125 -12.703125 L 5.78125 -12.703125 L 5.78125 -12.203125 L 4.15625 -11.953125 Z M 4.15625 -0.765625 "/></g></g></g><g fill="#ffffff" fill-opacity="1"><g transform="translate(443.514969, 443.941916)"><g><path d="M 7.328125 0.1875 C 5.273438 0.1875 3.671875 -0.367188 2.515625 -1.484375 C 1.367188 -2.609375 0.796875 -4.179688 0.796875 -6.203125 C 0.796875 -8.390625 1.347656 -10.039062 2.453125 -11.15625 C 3.554688 -12.28125 5.195312 -12.84375 7.375 -12.84375 C 8.695312 -12.84375 10.113281 -12.679688 11.625 -12.359375 L 11.6875 -9.59375 L 11.0625 -9.59375 L 10.78125 -11.234375 C 10.332031 -11.503906 9.816406 -11.710938 9.234375 -11.859375 C 8.648438 -12.015625 8.054688 -12.09375 7.453125 -12.09375 C 5.828125 -12.09375 4.640625 -11.613281 3.890625 -10.65625 C 3.148438 -9.707031 2.78125 -8.226562 2.78125 -6.21875 C 2.78125 -4.375 3.164062 -2.96875 3.9375 -2 C 4.71875 -1.03125 5.859375 -0.546875 7.359375 -0.546875 C 8.078125 -0.546875 8.753906 -0.628906 9.390625 -0.796875 C 10.023438 -0.972656 10.53125 -1.207031 10.90625 -1.5 L 11.25 -3.390625 L 11.875 -3.390625 L 11.8125 -0.40625 C 10.425781 -0.0078125 8.929688 0.1875 7.328125 0.1875 Z M 7.328125 0.1875 "/></g></g></g><g fill="#ffffff" fill-opacity="1"><g transform="translate(456.457122, 443.941916)"><g><path d="M 1.3125 -3.421875 L 1.9375 -3.421875 L 2.265625 -1.703125 C 2.492188 -1.410156 2.894531 -1.148438 3.46875 -0.921875 C 4.039062 -0.691406 4.609375 -0.578125 5.171875 -0.578125 C 6.046875 -0.578125 6.734375 -0.800781 7.234375 -1.25 C 7.734375 -1.707031 7.984375 -2.332031 7.984375 -3.125 C 7.984375 -3.582031 7.882812 -3.957031 7.6875 -4.25 C 7.5 -4.550781 7.25 -4.800781 6.9375 -5 C 6.625 -5.207031 6.265625 -5.382812 5.859375 -5.53125 C 5.460938 -5.675781 5.054688 -5.816406 4.640625 -5.953125 C 4.222656 -6.097656 3.8125 -6.257812 3.40625 -6.4375 C 3.007812 -6.613281 2.65625 -6.835938 2.34375 -7.109375 C 2.03125 -7.390625 1.773438 -7.726562 1.578125 -8.125 C 1.390625 -8.53125 1.296875 -9.023438 1.296875 -9.609375 C 1.296875 -10.617188 1.675781 -11.410156 2.4375 -11.984375 C 3.195312 -12.554688 4.25 -12.84375 5.59375 -12.84375 C 6.613281 -12.84375 7.722656 -12.707031 8.921875 -12.4375 L 8.921875 -9.796875 L 8.3125 -9.796875 L 7.984375 -11.359375 C 7.335938 -11.816406 6.539062 -12.046875 5.59375 -12.046875 C 4.75 -12.046875 4.085938 -11.875 3.609375 -11.53125 C 3.128906 -11.1875 2.890625 -10.710938 2.890625 -10.109375 C 2.890625 -9.703125 2.984375 -9.363281 3.171875 -9.09375 C 3.367188 -8.820312 3.625 -8.585938 3.9375 -8.390625 C 4.25 -8.203125 4.601562 -8.035156 5 -7.890625 C 5.40625 -7.753906 5.816406 -7.609375 6.234375 -7.453125 C 6.660156 -7.304688 7.070312 -7.140625 7.46875 -6.953125 C 7.875 -6.773438 8.234375 -6.539062 8.546875 -6.25 C 8.859375 -5.957031 9.109375 -5.601562 9.296875 -5.1875 C 9.492188 -4.78125 9.59375 -4.273438 9.59375 -3.671875 C 9.59375 -2.441406 9.210938 -1.488281 8.453125 -0.8125 C 7.703125 -0.144531 6.625 0.1875 5.21875 0.1875 C 4.53125 0.1875 3.84375 0.125 3.15625 0 C 2.46875 -0.113281 1.851562 -0.273438 1.3125 -0.484375 Z M 1.3125 -3.421875 "/></g></g></g><g fill="#ffffff" fill-opacity="1"><g transform="translate(467.248567, 443.941916)"><g/></g></g><g fill="#ffffff" fill-opacity="1"><g transform="translate(472.099506, 443.941916)"><g><path d="M 9.375 -10.265625 C 9.375 -9.765625 9.265625 -9.332031 9.046875 -8.96875 C 8.835938 -8.613281 8.539062 -8.300781 8.15625 -8.03125 C 7.769531 -7.757812 7.125 -7.445312 6.21875 -7.09375 L 10.21875 -3.453125 C 10.832031 -4.703125 11.160156 -5.847656 11.203125 -6.890625 L 9.859375 -7.140625 L 9.859375 -7.640625 L 14.1875 -7.640625 L 14.1875 -7.140625 L 12.875 -6.890625 C 12.382812 -5.210938 11.765625 -3.816406 11.015625 -2.703125 L 13.1875 -0.734375 L 14.75 -0.5 L 14.75 0 L 11.484375 0 L 9.859375 -1.46875 C 9.203125 -0.882812 8.515625 -0.460938 7.796875 -0.203125 C 7.085938 0.0546875 6.304688 0.1875 5.453125 0.1875 C 3.878906 0.1875 2.695312 -0.113281 1.90625 -0.71875 C 1.125 -1.332031 0.734375 -2.21875 0.734375 -3.375 C 0.734375 -3.988281 0.847656 -4.515625 1.078125 -4.953125 C 1.304688 -5.398438 1.613281 -5.78125 2 -6.09375 C 2.394531 -6.40625 3.015625 -6.722656 3.859375 -7.046875 C 2.910156 -7.960938 2.4375 -8.992188 2.4375 -10.140625 C 2.4375 -11.046875 2.738281 -11.734375 3.34375 -12.203125 C 3.945312 -12.671875 4.828125 -12.90625 5.984375 -12.90625 C 7.078125 -12.90625 7.914062 -12.679688 8.5 -12.234375 C 9.082031 -11.785156 9.375 -11.128906 9.375 -10.265625 Z M 5.703125 -0.625 C 7.078125 -0.625 8.242188 -1.109375 9.203125 -2.078125 L 4.484375 -6.40625 C 3.816406 -6.125 3.332031 -5.738281 3.03125 -5.25 C 2.738281 -4.757812 2.59375 -4.171875 2.59375 -3.484375 C 2.59375 -2.566406 2.859375 -1.859375 3.390625 -1.359375 C 3.929688 -0.867188 4.703125 -0.625 5.703125 -0.625 Z M 4.109375 -10.328125 C 4.109375 -9.296875 4.597656 -8.414062 5.578125 -7.6875 C 6.179688 -7.914062 6.617188 -8.140625 6.890625 -8.359375 C 7.160156 -8.578125 7.363281 -8.84375 7.5 -9.15625 C 7.632812 -9.46875 7.703125 -9.859375 7.703125 -10.328125 C 7.703125 -11.535156 7.128906 -12.140625 5.984375 -12.140625 C 5.316406 -12.140625 4.835938 -11.988281 4.546875 -11.6875 C 4.253906 -11.382812 4.109375 -10.929688 4.109375 -10.328125 Z M 4.109375 -10.328125 "/></g></g></g><g fill="#ffffff" fill-opacity="1"><g transform="translate(487.192368, 443.941916)"><g/></g></g><g fill="#ffffff" fill-opacity="1"><g transform="translate(492.043307, 443.941916)"><g><path d="M 4.015625 -5.703125 L 4.015625 -0.765625 L 6.125 -0.5 L 6.125 0 L 0.6875 0 L 0.6875 -0.5 L 2.1875 -0.765625 L 2.1875 -11.953125 L 0.5625 -12.203125 L 0.5625 -12.703125 L 10.09375 -12.703125 L 10.09375 -9.671875 L 9.46875 -9.671875 L 9.15625 -11.71875 C 8.457031 -11.8125 7.4375 -11.859375 6.09375 -11.859375 L 4.015625 -11.859375 L 4.015625 -6.5625 L 7.765625 -6.5625 L 8.046875 -8.078125 L 8.625 -8.078125 L 8.625 -4.171875 L 8.046875 -4.171875 L 7.765625 -5.703125 Z M 4.015625 -5.703125 "/></g></g></g><g fill="#ffffff" fill-opacity="1"><g transform="translate(502.834752, 443.941916)"><g><path d="M 4.15625 -0.765625 L 5.78125 -0.5 L 5.78125 0 L 0.703125 0 L 0.703125 -0.5 L 2.328125 -0.765625 L 2.328125 -11.953125 L 0.703125 -12.203125 L 0.703125 -12.703125 L 5.78125 -12.703125 L 5.78125 -12.203125 L 4.15625 -11.953125 Z M 4.15625 -0.765625 "/></g></g></g><g fill="#ffffff" fill-opacity="1"><g transform="translate(509.296354, 443.941916)"><g><path d="M 5.984375 -12.203125 L 4.015625 -11.953125 L 4.015625 -0.8125 L 6.515625 -0.8125 C 7.859375 -0.8125 8.847656 -0.875 9.484375 -1 L 10.078125 -3.640625 L 10.6875 -3.640625 L 10.515625 0 L 0.5625 0 L 0.5625 -0.5 L 2.1875 -0.765625 L 2.1875 -11.953125 L 0.5625 -12.203125 L 0.5625 -12.703125 L 5.984375 -12.703125 Z M 5.984375 -12.203125 "/></g></g></g><g fill="#ffffff" fill-opacity="1"><g transform="translate(521.148941, 443.941916)"><g><path d="M 8.171875 0 L 7.84375 0 L 3.1875 -10.921875 L 3.1875 -0.765625 L 4.890625 -0.5 L 4.890625 0 L 0.5625 0 L 0.5625 -0.5 L 2.1875 -0.765625 L 2.1875 -11.953125 L 0.5625 -12.203125 L 0.5625 -12.703125 L 4.40625 -12.703125 L 8.53125 -3.046875 L 13.046875 -12.703125 L 16.6875 -12.703125 L 16.6875 -12.203125 L 15.0625 -11.953125 L 15.0625 -0.765625 L 16.6875 -0.5 L 16.6875 0 L 11.53125 0 L 11.53125 -0.5 L 13.234375 -0.765625 L 13.234375 -10.921875 Z M 8.171875 0 "/></g></g></g><g fill="#ffffff" fill-opacity="1"><g transform="translate(538.401987, 443.941916)"><g><path d="M 8.171875 0 L 7.84375 0 L 3.1875 -10.921875 L 3.1875 -0.765625 L 4.890625 -0.5 L 4.890625 0 L 0.5625 0 L 0.5625 -0.5 L 2.1875 -0.765625 L 2.1875 -11.953125 L 0.5625 -12.203125 L 0.5625 -12.703125 L 4.40625 -12.703125 L 8.53125 -3.046875 L 13.046875 -12.703125 L 16.6875 -12.703125 L 16.6875 -12.203125 L 15.0625 -11.953125 L 15.0625 -0.765625 L 16.6875 -0.5 L 16.6875 0 L 11.53125 0 L 11.53125 -0.5 L 13.234375 -0.765625 L 13.234375 -10.921875 Z M 8.171875 0 "/></g></g></g><g fill="#ffffff" fill-opacity="1"><g transform="translate(555.655034, 443.941916)"><g><path d="M 4.375 -0.5 L 4.375 0 L 0.1875 0 L 0.1875 -0.5 L 1.625 -0.765625 L 5.953125 -12.8125 L 7.765625 -12.8125 L 12.265625 -0.765625 L 13.875 -0.5 L 13.875 0 L 8.5 0 L 8.5 -0.5 L 10.203125 -0.765625 L 8.9375 -4.421875 L 3.9375 -4.421875 L 2.65625 -0.765625 Z M 6.40625 -11.453125 L 4.21875 -5.28125 L 8.65625 -5.28125 Z M 6.40625 -11.453125 "/></g></g></g><g fill="#ffffff" fill-opacity="1"><g transform="translate(569.667804, 443.941916)"><g><path d="M 12.828125 -12.703125 L 12.828125 -12.203125 L 11.359375 -11.953125 L 7.015625 -7.71875 L 12.4375 -0.765625 L 13.8125 -0.5 L 13.8125 0 L 10.703125 0 L 5.734375 -6.421875 L 4.015625 -5.046875 L 4.015625 -0.765625 L 5.84375 -0.5 L 5.84375 0 L 0.5625 0 L 0.5625 -0.5 L 2.1875 -0.765625 L 2.1875 -11.953125 L 0.5625 -12.203125 L 0.5625 -12.703125 L 5.640625 -12.703125 L 5.640625 -12.203125 L 4.015625 -11.953125 L 4.015625 -5.96875 L 10.09375 -11.953125 L 8.84375 -12.203125 L 8.84375 -12.703125 Z M 12.828125 -12.703125 "/></g></g></g><g fill="#ffffff" fill-opacity="1"><g transform="translate(583.680575, 443.941916)"><g><path d="M 4.15625 -0.765625 L 5.78125 -0.5 L 5.78125 0 L 0.703125 0 L 0.703125 -0.5 L 2.328125 -0.765625 L 2.328125 -11.953125 L 0.703125 -12.203125 L 0.703125 -12.703125 L 5.78125 -12.703125 L 5.78125 -12.203125 L 4.15625 -11.953125 Z M 4.15625 -0.765625 "/></g></g></g><g fill="#ffffff" fill-opacity="1"><g transform="translate(590.142177, 443.941916)"><g><path d="M 10.9375 -11.953125 L 9.234375 -12.203125 L 9.234375 -12.703125 L 13.5625 -12.703125 L 13.5625 -12.203125 L 11.9375 -11.953125 L 11.9375 0 L 11.015625 0 L 3.1875 -11.421875 L 3.1875 -0.765625 L 4.890625 -0.5 L 4.890625 0 L 0.5625 0 L 0.5625 -0.5 L 2.1875 -0.765625 L 2.1875 -11.953125 L 0.5625 -12.203125 L 0.5625 -12.703125 L 4.40625 -12.703125 L 10.9375 -3.296875 Z M 10.9375 -11.953125 "/></g></g></g><g fill="#ffffff" fill-opacity="1"><g transform="translate(604.154948, 443.941916)"><g><path d="M 12.171875 -0.65625 C 11.429688 -0.414062 10.664062 -0.210938 9.875 -0.046875 C 9.09375 0.109375 8.242188 0.1875 7.328125 0.1875 C 5.273438 0.1875 3.671875 -0.363281 2.515625 -1.46875 C 1.367188 -2.582031 0.796875 -4.160156 0.796875 -6.203125 C 0.796875 -8.429688 1.351562 -10.09375 2.46875 -11.1875 C 3.582031 -12.289062 5.21875 -12.84375 7.375 -12.84375 C 8.914062 -12.84375 10.398438 -12.65625 11.828125 -12.28125 L 11.828125 -9.546875 L 11.203125 -9.546875 L 10.9375 -11.125 C 10.507812 -11.4375 9.988281 -11.675781 9.375 -11.84375 C 8.769531 -12.007812 8.128906 -12.09375 7.453125 -12.09375 C 5.828125 -12.09375 4.640625 -11.609375 3.890625 -10.640625 C 3.148438 -9.679688 2.78125 -8.207031 2.78125 -6.21875 C 2.78125 -4.363281 3.164062 -2.953125 3.9375 -1.984375 C 4.707031 -1.023438 5.847656 -0.546875 7.359375 -0.546875 C 7.890625 -0.546875 8.441406 -0.609375 9.015625 -0.734375 C 9.597656 -0.859375 10.039062 -1.007812 10.34375 -1.1875 L 10.34375 -4.796875 L 8.71875 -5.046875 L 8.71875 -5.546875 L 13.40625 -5.546875 L 13.40625 -5.046875 L 12.171875 -4.796875 Z M 12.171875 -0.65625 "/></g></g></g><path fill="#ff689a" d="M 175.007812 402.992188 C 178.441406 398.644531 178.359375 390.9375 178.359375 390.9375 C 178.359375 377.28125 162.925781 378.035156 159.738281 378.035156 C 154.210938 378.054688 147.257812 380.273438 143.734375 386.050781 C 140.210938 391.835938 133.4375 391.835938 133.4375 391.835938 C 133.4375 391.835938 125.359375 391.574219 125.289062 395.691406 C 125.289062 401.25 133.660156 401.527344 133.660156 401.527344 C 133.660156 401.527344 141.011719 401.527344 147.535156 401.527344 C 154.058594 401.527344 153.316406 408.691406 153.316406 408.691406 C 153.316406 408.691406 153.359375 413.625 148.28125 417.839844 C 143.203125 422.050781 143.1875 430.65625 143.1875 430.65625 C 143.1875 450.257812 172.757812 450.394531 176.609375 450.753906 C 180.464844 451.113281 185.449219 451.414062 194.742188 450.753906 C 226.226562 448.515625 242.027344 427.296875 242.300781 422.726562 C 242.578125 418.15625 238.957031 418.089844 238.433594 418.292969 C 237.910156 418.5 240.8125 412.707031 239.21875 410.667969 C 237.621094 408.632812 235.75 407.75 232.777344 408.191406 C 229.804688 408.632812 228.921875 410.503906 224.238281 411.988281 C 219.558594 413.476562 214.546875 411.714844 214.546875 411.714844 C 214.546875 411.714844 201.167969 407.691406 195.441406 407.472656 C 189.714844 407.253906 180.871094 408.933594 179.691406 408.960938 C 178.515625 408.984375 174.296875 408.738281 174.296875 405.984375 C 174.292969 405.980469 174.375 403.953125 175.007812 402.992188 Z M 154.144531 391.65625 C 153.207031 391.65625 152.453125 390.898438 152.453125 389.964844 C 152.453125 389.03125 153.210938 388.273438 154.144531 388.273438 C 155.078125 388.273438 155.835938 389.03125 155.835938 389.964844 C 155.835938 390.898438 155.078125 391.65625 154.144531 391.65625 Z M 154.144531 391.65625 " fill-opacity="1" fill-rule="nonzero"/></svg>