<svg xmlns="http://www.w3.org/2000/svg" xmlns:xlink="http://www.w3.org/1999/xlink" width="1080" zoomAndPan="magnify" viewBox="0 0 810 809.999993" height="1080" preserveAspectRatio="xMidYMid meet" version="1.0"><defs><g/></defs><g fill="#000000" fill-opacity="1"><g transform="translate(259.326142, 408.637271)"><g><path d="M 1.890625 -7.15625 L 3.4375 -7.15625 L 4.21875 -3.40625 C 4.695312 -2.84375 5.429688 -2.367188 6.421875 -1.984375 C 7.410156 -1.597656 8.429688 -1.40625 9.484375 -1.40625 C 12.816406 -1.40625 14.484375 -2.773438 14.484375 -5.515625 C 14.484375 -6.378906 14.164062 -7.101562 13.53125 -7.6875 C 12.90625 -8.28125 11.910156 -8.8125 10.546875 -9.28125 C 8.554688 -9.9375 7.117188 -10.472656 6.234375 -10.890625 C 5.359375 -11.304688 4.617188 -11.789062 4.015625 -12.34375 C 3.410156 -12.894531 2.925781 -13.566406 2.5625 -14.359375 C 2.207031 -15.160156 2.03125 -16.144531 2.03125 -17.3125 C 2.03125 -19.363281 2.726562 -20.925781 4.125 -22 C 5.53125 -23.070312 7.578125 -23.609375 10.265625 -23.609375 C 12.222656 -23.609375 14.382812 -23.359375 16.75 -22.859375 L 16.75 -17.3125 L 15.203125 -17.3125 L 14.421875 -20.515625 C 13.234375 -21.367188 11.847656 -21.796875 10.265625 -21.796875 C 8.835938 -21.796875 7.738281 -21.53125 6.96875 -21 C 6.207031 -20.476562 5.828125 -19.671875 5.828125 -18.578125 C 5.828125 -17.796875 6.144531 -17.128906 6.78125 -16.578125 C 7.425781 -16.023438 8.425781 -15.535156 9.78125 -15.109375 C 12.4375 -14.242188 14.257812 -13.488281 15.25 -12.84375 C 16.25 -12.195312 17.007812 -11.394531 17.53125 -10.4375 C 18.050781 -9.488281 18.3125 -8.375 18.3125 -7.09375 C 18.3125 -2.132812 15.394531 0.34375 9.5625 0.34375 C 8.226562 0.34375 6.863281 0.226562 5.46875 0 C 4.082031 -0.21875 2.890625 -0.515625 1.890625 -0.890625 Z M 1.890625 -7.15625 "/></g></g></g><g fill="#000000" fill-opacity="1"><g transform="translate(279.152312, 408.637271)"><g><path d="M 7.515625 -11.703125 C 7.515625 -7.992188 8.019531 -5.347656 9.03125 -3.765625 C 10.050781 -2.179688 11.664062 -1.390625 13.875 -1.390625 C 16.070312 -1.390625 17.675781 -2.179688 18.6875 -3.765625 C 19.707031 -5.359375 20.21875 -8.003906 20.21875 -11.703125 C 20.21875 -15.378906 19.707031 -17.988281 18.6875 -19.53125 C 17.675781 -21.070312 16.070312 -21.84375 13.875 -21.84375 C 11.664062 -21.84375 10.050781 -21.070312 9.03125 -19.53125 C 8.019531 -17.988281 7.515625 -15.378906 7.515625 -11.703125 Z M 1.734375 -11.703125 C 1.734375 -19.640625 5.78125 -23.609375 13.875 -23.609375 C 17.863281 -23.609375 20.878906 -22.597656 22.921875 -20.578125 C 24.972656 -18.566406 26 -15.609375 26 -11.703125 C 26 -7.742188 24.960938 -4.742188 22.890625 -2.703125 C 20.828125 -0.671875 17.820312 0.34375 13.875 0.34375 C 9.9375 0.34375 6.925781 -0.671875 4.84375 -2.703125 C 2.769531 -4.734375 1.734375 -7.734375 1.734375 -11.703125 Z M 1.734375 -11.703125 "/></g></g></g><g fill="#000000" fill-opacity="1"><g transform="translate(306.881097, 408.637271)"><g><path d="M 20.109375 -21.625 L 16.96875 -22.078125 L 16.96875 -23.34375 L 25.28125 -23.34375 L 25.28125 -22.078125 L 22.28125 -21.625 L 22.28125 0 L 20.25 0 L 5.84375 -18.765625 L 5.84375 -1.734375 L 8.984375 -1.265625 L 8.984375 0 L 0.671875 0 L 0.671875 -1.265625 L 3.671875 -1.734375 L 3.671875 -21.625 L 0.671875 -22.078125 L 0.671875 -23.34375 L 8.671875 -23.34375 L 20.109375 -8.421875 Z M 20.109375 -21.625 "/></g></g></g><g fill="#000000" fill-opacity="1"><g transform="translate(332.625526, 408.637271)"><g><path d="M 18.234375 -11.671875 C 18.234375 -15.035156 17.613281 -17.503906 16.375 -19.078125 C 15.144531 -20.648438 13.144531 -21.4375 10.375 -21.4375 L 9.09375 -21.4375 L 9.09375 -1.984375 C 10.207031 -1.890625 11.21875 -1.84375 12.125 -1.84375 C 13.625 -1.84375 14.8125 -2.164062 15.6875 -2.8125 C 16.570312 -3.46875 17.21875 -4.488281 17.625 -5.875 C 18.03125 -7.257812 18.234375 -9.191406 18.234375 -11.671875 Z M 11.71875 -23.34375 C 15.90625 -23.34375 19 -22.394531 21 -20.5 C 23.007812 -18.601562 24.015625 -15.703125 24.015625 -11.796875 C 24.015625 -7.796875 23.054688 -4.816406 21.140625 -2.859375 C 19.222656 -0.910156 16.328125 0.0625 12.453125 0.0625 L 4.625 0 L 0.625 0 L 0.625 -1.265625 L 3.625 -1.734375 L 3.625 -21.625 L 0.625 -22.078125 L 0.625 -23.34375 Z M 11.71875 -23.34375 "/></g></g></g><g fill="#000000" fill-opacity="1"><g transform="translate(358.369954, 408.637271)"><g><path d="M 14.59375 -2.125 C 16.332031 -2.125 17.675781 -2.609375 18.625 -3.578125 C 19.582031 -4.554688 20.0625 -5.992188 20.0625 -7.890625 L 20.0625 -21.625 L 16.921875 -22.078125 L 16.921875 -23.34375 L 24.859375 -23.34375 L 24.859375 -22.078125 L 22.21875 -21.625 L 22.21875 -8.03125 C 22.21875 -5.332031 21.4375 -3.265625 19.875 -1.828125 C 18.320312 -0.390625 16.101562 0.328125 13.21875 0.328125 C 10.09375 0.328125 7.695312 -0.398438 6.03125 -1.859375 C 4.363281 -3.316406 3.53125 -5.421875 3.53125 -8.171875 L 3.53125 -21.625 L 0.890625 -22.078125 L 0.890625 -23.34375 L 12.015625 -23.34375 L 12.015625 -22.078125 L 9.015625 -21.625 L 9.015625 -7.921875 C 9.015625 -6.054688 9.488281 -4.625 10.4375 -3.625 C 11.382812 -2.625 12.769531 -2.125 14.59375 -2.125 Z M 14.59375 -2.125 "/></g></g></g><g fill="#000000" fill-opacity="1"><g transform="translate(384.114383, 408.637271)"><g><path d="M 14.1875 0.34375 C 10.28125 0.34375 7.226562 -0.691406 5.03125 -2.765625 C 2.832031 -4.847656 1.734375 -7.726562 1.734375 -11.40625 C 1.734375 -15.394531 2.78125 -18.425781 4.875 -20.5 C 6.976562 -22.570312 10.078125 -23.609375 14.171875 -23.609375 C 16.878906 -23.609375 19.679688 -23.21875 22.578125 -22.4375 L 22.6875 -16.828125 L 21.125 -16.828125 L 20.625 -20.21875 C 19.09375 -21.257812 17.3125 -21.78125 15.28125 -21.78125 C 12.59375 -21.78125 10.625 -20.941406 9.375 -19.265625 C 8.132812 -17.585938 7.515625 -14.984375 7.515625 -11.453125 C 7.515625 -8.191406 8.164062 -5.707031 9.46875 -4 C 10.769531 -2.289062 12.660156 -1.4375 15.140625 -1.4375 C 16.453125 -1.4375 17.597656 -1.609375 18.578125 -1.953125 C 19.566406 -2.304688 20.335938 -2.722656 20.890625 -3.203125 L 21.453125 -7.03125 L 23.03125 -7.03125 L 22.921875 -1.109375 C 21.878906 -0.703125 20.519531 -0.359375 18.84375 -0.078125 C 17.175781 0.203125 15.625 0.34375 14.1875 0.34375 Z M 14.1875 0.34375 "/></g></g></g><g fill="#000000" fill-opacity="1"><g transform="translate(409.858811, 408.637271)"><g><path d="M 25.578125 -23.34375 L 25.578125 -22.078125 L 22.71875 -21.625 L 15 -14.8125 L 25.28125 -1.734375 L 27.453125 -1.265625 L 27.453125 0 L 19.828125 0 L 11.109375 -11.25 L 9.09375 -9.5 L 9.09375 -1.734375 L 12.453125 -1.265625 L 12.453125 0 L 0.609375 0 L 0.609375 -1.265625 L 3.609375 -1.734375 L 3.609375 -21.625 L 0.609375 -22.078125 L 0.609375 -23.34375 L 12.09375 -23.34375 L 12.09375 -22.078125 L 9.09375 -21.625 L 9.09375 -12.125 L 19.71875 -21.625 L 17.578125 -22.078125 L 17.578125 -23.34375 Z M 25.578125 -23.34375 "/></g></g></g><g fill="#000000" fill-opacity="1"><g transform="translate(447.84422, 408.637271)"><g><path d="M 7.375 -10.484375 L 7.375 -1.390625 L 11.265625 -0.921875 L 11.265625 0 L 1.25 0 L 1.25 -0.921875 L 4.015625 -1.390625 L 4.015625 -21.96875 L 1.03125 -22.421875 L 1.03125 -23.34375 L 18.546875 -23.34375 L 18.546875 -17.765625 L 17.390625 -17.765625 L 16.828125 -21.53125 C 15.535156 -21.695312 13.65625 -21.78125 11.1875 -21.78125 L 7.375 -21.78125 L 7.375 -12.046875 L 14.265625 -12.046875 L 14.796875 -14.828125 L 15.859375 -14.828125 L 15.859375 -7.65625 L 14.796875 -7.65625 L 14.265625 -10.484375 Z M 7.375 -10.484375 "/></g></g></g><g fill="#000000" fill-opacity="1"><g transform="translate(467.67039, 408.637271)"><g><path d="M 7.625 -1.390625 L 10.625 -0.921875 L 10.625 0 L 1.28125 0 L 1.28125 -0.921875 L 4.28125 -1.390625 L 4.28125 -21.96875 L 1.28125 -22.421875 L 1.28125 -23.34375 L 10.625 -23.34375 L 10.625 -22.421875 L 7.625 -21.96875 Z M 7.625 -1.390625 "/></g></g></g><g fill="#000000" fill-opacity="1"><g transform="translate(479.54172, 408.637271)"><g><path d="M 10.984375 -22.421875 L 7.375 -21.96875 L 7.375 -1.5 L 11.984375 -1.5 C 14.453125 -1.5 16.265625 -1.613281 17.421875 -1.84375 L 18.5 -6.703125 L 19.640625 -6.703125 L 19.328125 0 L 1.03125 0 L 1.03125 -0.921875 L 4.015625 -1.390625 L 4.015625 -21.96875 L 1.03125 -22.421875 L 1.03125 -23.34375 L 10.984375 -23.34375 Z M 10.984375 -22.421875 "/></g></g></g><g fill="#000000" fill-opacity="1"><g transform="translate(501.317434, 408.637271)"><g><path d="M 15 0 L 14.390625 0 L 5.84375 -20.078125 L 5.84375 -1.390625 L 8.984375 -0.921875 L 8.984375 0 L 1.03125 0 L 1.03125 -0.921875 L 4.015625 -1.390625 L 4.015625 -21.96875 L 1.03125 -22.421875 L 1.03125 -23.34375 L 8.09375 -23.34375 L 15.6875 -5.59375 L 23.96875 -23.34375 L 30.65625 -23.34375 L 30.65625 -22.421875 L 27.671875 -21.96875 L 27.671875 -1.390625 L 30.65625 -0.921875 L 30.65625 0 L 21.1875 0 L 21.1875 -0.921875 L 24.328125 -1.390625 L 24.328125 -20.078125 Z M 15 0 "/></g></g></g><g fill="#000000" fill-opacity="1"><g transform="translate(271.662056, 427.797864)"><g><path d="M 6.34375 0 L 6.078125 0 L 2.46875 -8.484375 L 2.46875 -0.59375 L 3.796875 -0.390625 L 3.796875 0 L 0.4375 0 L 0.4375 -0.390625 L 1.703125 -0.59375 L 1.703125 -9.28125 L 0.4375 -9.46875 L 0.4375 -9.859375 L 3.421875 -9.859375 L 6.625 -2.359375 L 10.125 -9.859375 L 12.953125 -9.859375 L 12.953125 -9.46875 L 11.6875 -9.28125 L 11.6875 -0.59375 L 12.953125 -0.390625 L 12.953125 0 L 8.953125 0 L 8.953125 -0.390625 L 10.28125 -0.59375 L 10.28125 -8.484375 Z M 6.34375 0 "/></g></g></g><g fill="#000000" fill-opacity="1"><g transform="translate(285.057711, 427.797864)"><g><path d="M 2.15625 -4.9375 C 2.15625 -3.351562 2.421875 -2.207031 2.953125 -1.5 C 3.484375 -0.789062 4.3125 -0.4375 5.4375 -0.4375 C 6.5625 -0.4375 7.390625 -0.789062 7.921875 -1.5 C 8.453125 -2.207031 8.71875 -3.351562 8.71875 -4.9375 C 8.71875 -6.507812 8.453125 -7.644531 7.921875 -8.34375 C 7.390625 -9.039062 6.5625 -9.390625 5.4375 -9.390625 C 4.300781 -9.390625 3.46875 -9.039062 2.9375 -8.34375 C 2.414062 -7.644531 2.15625 -6.507812 2.15625 -4.9375 Z M 0.625 -4.9375 C 0.625 -8.289062 2.226562 -9.96875 5.4375 -9.96875 C 7.019531 -9.96875 8.21875 -9.539062 9.03125 -8.6875 C 9.851562 -7.84375 10.265625 -6.59375 10.265625 -4.9375 C 10.265625 -3.257812 9.847656 -1.992188 9.015625 -1.140625 C 8.191406 -0.285156 7 0.140625 5.4375 0.140625 C 3.875 0.140625 2.679688 -0.285156 1.859375 -1.140625 C 1.035156 -1.992188 0.625 -3.257812 0.625 -4.9375 Z M 0.625 -4.9375 "/></g></g></g><g fill="#000000" fill-opacity="1"><g transform="translate(295.937542, 427.797864)"><g><path d="M 2.3125 0 L 2.3125 -0.390625 L 3.890625 -0.59375 L 3.890625 -9.234375 L 3.515625 -9.234375 C 2.265625 -9.234375 1.414062 -9.179688 0.96875 -9.078125 L 0.765625 -7.546875 L 0.265625 -7.546875 L 0.265625 -9.859375 L 8.953125 -9.859375 L 8.953125 -7.546875 L 8.453125 -7.546875 L 8.25 -9.078125 C 8.101562 -9.117188 7.78125 -9.148438 7.28125 -9.171875 C 6.789062 -9.203125 6.25 -9.21875 5.65625 -9.21875 L 5.296875 -9.21875 L 5.296875 -0.59375 L 6.875 -0.390625 L 6.875 0 Z M 2.3125 0 "/></g></g></g><g fill="#000000" fill-opacity="1"><g transform="translate(305.140159, 427.797864)"><g><path d="M 3.21875 -0.59375 L 4.484375 -0.390625 L 4.484375 0 L 0.546875 0 L 0.546875 -0.390625 L 1.8125 -0.59375 L 1.8125 -9.28125 L 0.546875 -9.46875 L 0.546875 -9.859375 L 4.484375 -9.859375 L 4.484375 -9.46875 L 3.21875 -9.28125 Z M 3.21875 -0.59375 "/></g></g></g><g fill="#000000" fill-opacity="1"><g transform="translate(310.157092, 427.797864)"><g><path d="M 2.15625 -4.9375 C 2.15625 -3.351562 2.421875 -2.207031 2.953125 -1.5 C 3.484375 -0.789062 4.3125 -0.4375 5.4375 -0.4375 C 6.5625 -0.4375 7.390625 -0.789062 7.921875 -1.5 C 8.453125 -2.207031 8.71875 -3.351562 8.71875 -4.9375 C 8.71875 -6.507812 8.453125 -7.644531 7.921875 -8.34375 C 7.390625 -9.039062 6.5625 -9.390625 5.4375 -9.390625 C 4.300781 -9.390625 3.46875 -9.039062 2.9375 -8.34375 C 2.414062 -7.644531 2.15625 -6.507812 2.15625 -4.9375 Z M 0.625 -4.9375 C 0.625 -8.289062 2.226562 -9.96875 5.4375 -9.96875 C 7.019531 -9.96875 8.21875 -9.539062 9.03125 -8.6875 C 9.851562 -7.84375 10.265625 -6.59375 10.265625 -4.9375 C 10.265625 -3.257812 9.847656 -1.992188 9.015625 -1.140625 C 8.191406 -0.285156 7 0.140625 5.4375 0.140625 C 3.875 0.140625 2.679688 -0.285156 1.859375 -1.140625 C 1.035156 -1.992188 0.625 -3.257812 0.625 -4.9375 Z M 0.625 -4.9375 "/></g></g></g><g fill="#000000" fill-opacity="1"><g transform="translate(321.036924, 427.797864)"><g><path d="M 8.5 -9.28125 L 7.171875 -9.46875 L 7.171875 -9.859375 L 10.53125 -9.859375 L 10.53125 -9.46875 L 9.265625 -9.28125 L 9.265625 0 L 8.546875 0 L 2.46875 -8.875 L 2.46875 -0.59375 L 3.796875 -0.390625 L 3.796875 0 L 0.4375 0 L 0.4375 -0.390625 L 1.703125 -0.59375 L 1.703125 -9.28125 L 0.4375 -9.46875 L 0.4375 -9.859375 L 3.421875 -9.859375 L 8.5 -2.5625 Z M 8.5 -9.28125 "/></g></g></g><g fill="#000000" fill-opacity="1"><g transform="translate(331.916755, 427.797864)"><g/></g></g><g fill="#000000" fill-opacity="1"><g transform="translate(335.683134, 427.797864)"><g><path d="M 9.4375 -0.515625 C 8.875 -0.328125 8.285156 -0.171875 7.671875 -0.046875 C 7.054688 0.078125 6.394531 0.140625 5.6875 0.140625 C 4.09375 0.140625 2.847656 -0.285156 1.953125 -1.140625 C 1.066406 -2.003906 0.625 -3.226562 0.625 -4.8125 C 0.625 -6.539062 1.054688 -7.832031 1.921875 -8.6875 C 2.785156 -9.539062 4.050781 -9.96875 5.71875 -9.96875 C 6.914062 -9.96875 8.070312 -9.820312 9.1875 -9.53125 L 9.1875 -7.40625 L 8.6875 -7.40625 L 8.5 -8.640625 C 8.15625 -8.878906 7.742188 -9.0625 7.265625 -9.1875 C 6.796875 -9.320312 6.300781 -9.390625 5.78125 -9.390625 C 4.519531 -9.390625 3.597656 -9.015625 3.015625 -8.265625 C 2.441406 -7.515625 2.15625 -6.367188 2.15625 -4.828125 C 2.15625 -3.378906 2.453125 -2.28125 3.046875 -1.53125 C 3.648438 -0.789062 4.535156 -0.421875 5.703125 -0.421875 C 6.117188 -0.421875 6.550781 -0.46875 7 -0.5625 C 7.445312 -0.664062 7.789062 -0.785156 8.03125 -0.921875 L 8.03125 -3.71875 L 6.765625 -3.90625 L 6.765625 -4.3125 L 10.40625 -4.3125 L 10.40625 -3.90625 L 9.4375 -3.71875 Z M 9.4375 -0.515625 "/></g></g></g><g fill="#000000" fill-opacity="1"><g transform="translate(346.562965, 427.797864)"><g><path d="M 3.125 -4.328125 L 3.125 -0.59375 L 4.609375 -0.390625 L 4.609375 0 L 0.53125 0 L 0.53125 -0.390625 L 1.703125 -0.59375 L 1.703125 -9.28125 L 0.4375 -9.46875 L 0.4375 -9.859375 L 4.6875 -9.859375 C 5.925781 -9.859375 6.835938 -9.648438 7.421875 -9.234375 C 8.015625 -8.816406 8.3125 -8.148438 8.3125 -7.234375 C 8.3125 -6.578125 8.128906 -6.007812 7.765625 -5.53125 C 7.410156 -5.050781 6.914062 -4.71875 6.28125 -4.53125 L 8.953125 -0.59375 L 10.03125 -0.390625 L 10.03125 0 L 7.65625 0 L 4.890625 -4.328125 Z M 6.84375 -7.125 C 6.84375 -7.875 6.660156 -8.40625 6.296875 -8.71875 C 5.929688 -9.039062 5.289062 -9.203125 4.375 -9.203125 L 3.125 -9.203125 L 3.125 -4.984375 L 4.421875 -4.984375 C 5.296875 -4.984375 5.914062 -5.144531 6.28125 -5.46875 C 6.65625 -5.800781 6.84375 -6.351562 6.84375 -7.125 Z M 6.84375 -7.125 "/></g></g></g><g fill="#000000" fill-opacity="1"><g transform="translate(356.611545, 427.797864)"><g><path d="M 3.390625 -0.390625 L 3.390625 0 L 0.140625 0 L 0.140625 -0.390625 L 1.265625 -0.59375 L 4.625 -9.9375 L 6.03125 -9.9375 L 9.515625 -0.59375 L 10.765625 -0.390625 L 10.765625 0 L 6.59375 0 L 6.59375 -0.390625 L 7.921875 -0.59375 L 6.9375 -3.4375 L 3.0625 -3.4375 L 2.0625 -0.59375 Z M 4.96875 -8.890625 L 3.28125 -4.09375 L 6.71875 -4.09375 Z M 4.96875 -8.890625 "/></g></g></g><g fill="#000000" fill-opacity="1"><g transform="translate(367.491377, 427.797864)"><g><path d="M 6.3125 -6.9375 C 6.3125 -7.75 6.117188 -8.328125 5.734375 -8.671875 C 5.359375 -9.023438 4.726562 -9.203125 3.84375 -9.203125 L 3.125 -9.203125 L 3.125 -4.53125 L 3.890625 -4.53125 C 4.710938 -4.53125 5.320312 -4.71875 5.71875 -5.09375 C 6.113281 -5.46875 6.3125 -6.082031 6.3125 -6.9375 Z M 3.125 -3.875 L 3.125 -0.59375 L 4.6875 -0.390625 L 4.6875 0 L 0.53125 0 L 0.53125 -0.390625 L 1.703125 -0.59375 L 1.703125 -9.28125 L 0.4375 -9.46875 L 0.4375 -9.859375 L 4.15625 -9.859375 C 6.570312 -9.859375 7.78125 -8.890625 7.78125 -6.953125 C 7.78125 -5.941406 7.472656 -5.175781 6.859375 -4.65625 C 6.242188 -4.132812 5.367188 -3.875 4.234375 -3.875 Z M 3.125 -3.875 "/></g></g></g><g fill="#000000" fill-opacity="1"><g transform="translate(375.870098, 427.797864)"><g><path d="M 0.4375 0 L 0.4375 -0.390625 L 1.703125 -0.59375 L 1.703125 -9.28125 L 0.4375 -9.46875 L 0.4375 -9.859375 L 4.390625 -9.859375 L 4.390625 -9.46875 L 3.125 -9.28125 L 3.125 -5.40625 L 7.765625 -5.40625 L 7.765625 -9.28125 L 6.5 -9.46875 L 6.5 -9.859375 L 10.4375 -9.859375 L 10.4375 -9.46875 L 9.171875 -9.28125 L 9.171875 -0.59375 L 10.4375 -0.390625 L 10.4375 0 L 6.5 0 L 6.5 -0.390625 L 7.765625 -0.59375 L 7.765625 -4.75 L 3.125 -4.75 L 3.125 -0.59375 L 4.390625 -0.390625 L 4.390625 0 Z M 0.4375 0 "/></g></g></g><g fill="#000000" fill-opacity="1"><g transform="translate(386.749929, 427.797864)"><g><path d="M 3.21875 -0.59375 L 4.484375 -0.390625 L 4.484375 0 L 0.546875 0 L 0.546875 -0.390625 L 1.8125 -0.59375 L 1.8125 -9.28125 L 0.546875 -9.46875 L 0.546875 -9.859375 L 4.484375 -9.859375 L 4.484375 -9.46875 L 3.21875 -9.28125 Z M 3.21875 -0.59375 "/></g></g></g><g fill="#000000" fill-opacity="1"><g transform="translate(391.766863, 427.797864)"><g><path d="M 5.6875 0.140625 C 4.09375 0.140625 2.847656 -0.289062 1.953125 -1.15625 C 1.066406 -2.03125 0.625 -3.25 0.625 -4.8125 C 0.625 -6.507812 1.050781 -7.789062 1.90625 -8.65625 C 2.757812 -9.53125 4.03125 -9.96875 5.71875 -9.96875 C 6.75 -9.96875 7.851562 -9.84375 9.03125 -9.59375 L 9.0625 -7.4375 L 8.578125 -7.4375 L 8.359375 -8.71875 C 8.015625 -8.925781 7.613281 -9.085938 7.15625 -9.203125 C 6.707031 -9.328125 6.25 -9.390625 5.78125 -9.390625 C 4.519531 -9.390625 3.597656 -9.015625 3.015625 -8.265625 C 2.441406 -7.523438 2.15625 -6.378906 2.15625 -4.828125 C 2.15625 -3.398438 2.457031 -2.304688 3.0625 -1.546875 C 3.664062 -0.796875 4.546875 -0.421875 5.703125 -0.421875 C 6.265625 -0.421875 6.789062 -0.488281 7.28125 -0.625 C 7.78125 -0.757812 8.175781 -0.9375 8.46875 -1.15625 L 8.734375 -2.640625 L 9.21875 -2.640625 L 9.171875 -0.3125 C 8.085938 -0.0078125 6.925781 0.140625 5.6875 0.140625 Z M 5.6875 0.140625 "/></g></g></g><g fill="#000000" fill-opacity="1"><g transform="translate(401.815443, 427.797864)"><g><path d="M 1.015625 -2.65625 L 1.5 -2.65625 L 1.75 -1.328125 C 1.9375 -1.097656 2.25 -0.894531 2.6875 -0.71875 C 3.132812 -0.539062 3.578125 -0.453125 4.015625 -0.453125 C 4.691406 -0.453125 5.222656 -0.625 5.609375 -0.96875 C 5.992188 -1.320312 6.1875 -1.804688 6.1875 -2.421875 C 6.1875 -2.773438 6.113281 -3.066406 5.96875 -3.296875 C 5.820312 -3.523438 5.625 -3.71875 5.375 -3.875 C 5.132812 -4.039062 4.859375 -4.175781 4.546875 -4.28125 C 4.242188 -4.394531 3.925781 -4.507812 3.59375 -4.625 C 3.269531 -4.738281 2.953125 -4.863281 2.640625 -5 C 2.335938 -5.132812 2.0625 -5.304688 1.8125 -5.515625 C 1.570312 -5.734375 1.375 -6 1.21875 -6.3125 C 1.070312 -6.625 1 -7.003906 1 -7.453125 C 1 -8.242188 1.289062 -8.859375 1.875 -9.296875 C 2.46875 -9.742188 3.289062 -9.96875 4.34375 -9.96875 C 5.132812 -9.96875 5.992188 -9.863281 6.921875 -9.65625 L 6.921875 -7.609375 L 6.453125 -7.609375 L 6.1875 -8.8125 C 5.6875 -9.175781 5.070312 -9.359375 4.34375 -9.359375 C 3.6875 -9.359375 3.171875 -9.222656 2.796875 -8.953125 C 2.429688 -8.679688 2.25 -8.3125 2.25 -7.84375 C 2.25 -7.53125 2.320312 -7.265625 2.46875 -7.046875 C 2.613281 -6.835938 2.804688 -6.65625 3.046875 -6.5 C 3.296875 -6.351562 3.578125 -6.226562 3.890625 -6.125 C 4.203125 -6.019531 4.519531 -5.910156 4.84375 -5.796875 C 5.164062 -5.679688 5.484375 -5.550781 5.796875 -5.40625 C 6.109375 -5.257812 6.382812 -5.070312 6.625 -4.84375 C 6.875 -4.625 7.070312 -4.351562 7.21875 -4.03125 C 7.363281 -3.707031 7.4375 -3.3125 7.4375 -2.84375 C 7.4375 -1.894531 7.144531 -1.160156 6.5625 -0.640625 C 5.976562 -0.117188 5.140625 0.140625 4.046875 0.140625 C 3.515625 0.140625 2.976562 0.09375 2.4375 0 C 1.90625 -0.0820312 1.429688 -0.207031 1.015625 -0.375 Z M 1.015625 -2.65625 "/></g></g></g><g fill="#000000" fill-opacity="1"><g transform="translate(410.194164, 427.797864)"><g/></g></g><g fill="#000000" fill-opacity="1"><g transform="translate(413.960542, 427.797864)"><g><path d="M 7.28125 -7.96875 C 7.28125 -7.582031 7.195312 -7.25 7.03125 -6.96875 C 6.863281 -6.6875 6.628906 -6.4375 6.328125 -6.21875 C 6.035156 -6.007812 5.535156 -5.769531 4.828125 -5.5 L 7.9375 -2.671875 C 8.414062 -3.648438 8.664062 -4.539062 8.6875 -5.34375 L 7.65625 -5.546875 L 7.65625 -5.9375 L 11.015625 -5.9375 L 11.015625 -5.546875 L 9.984375 -5.34375 C 9.609375 -4.039062 9.128906 -2.960938 8.546875 -2.109375 L 10.234375 -0.578125 L 11.4375 -0.390625 L 11.4375 0 L 8.90625 0 L 7.65625 -1.140625 C 7.144531 -0.679688 6.609375 -0.351562 6.046875 -0.15625 C 5.492188 0.0390625 4.890625 0.140625 4.234375 0.140625 C 3.015625 0.140625 2.097656 -0.09375 1.484375 -0.5625 C 0.878906 -1.03125 0.578125 -1.71875 0.578125 -2.625 C 0.578125 -3.09375 0.664062 -3.5 0.84375 -3.84375 C 1.019531 -4.1875 1.257812 -4.476562 1.5625 -4.71875 C 1.863281 -4.96875 2.34375 -5.21875 3 -5.46875 C 2.257812 -6.175781 1.890625 -6.976562 1.890625 -7.875 C 1.890625 -8.570312 2.125 -9.101562 2.59375 -9.46875 C 3.0625 -9.832031 3.742188 -10.015625 4.640625 -10.015625 C 5.492188 -10.015625 6.144531 -9.835938 6.59375 -9.484375 C 7.050781 -9.140625 7.28125 -8.632812 7.28125 -7.96875 Z M 4.421875 -0.484375 C 5.492188 -0.484375 6.40625 -0.859375 7.15625 -1.609375 L 3.484375 -4.96875 C 2.960938 -4.75 2.585938 -4.453125 2.359375 -4.078125 C 2.128906 -3.703125 2.015625 -3.242188 2.015625 -2.703125 C 2.015625 -1.984375 2.222656 -1.429688 2.640625 -1.046875 C 3.054688 -0.671875 3.648438 -0.484375 4.421875 -0.484375 Z M 3.1875 -8.015625 C 3.1875 -7.210938 3.566406 -6.53125 4.328125 -5.96875 C 4.796875 -6.144531 5.132812 -6.316406 5.34375 -6.484375 C 5.550781 -6.648438 5.707031 -6.851562 5.8125 -7.09375 C 5.925781 -7.34375 5.984375 -7.648438 5.984375 -8.015625 C 5.984375 -8.953125 5.535156 -9.421875 4.640625 -9.421875 C 4.128906 -9.421875 3.757812 -9.300781 3.53125 -9.0625 C 3.300781 -8.832031 3.1875 -8.484375 3.1875 -8.015625 Z M 3.1875 -8.015625 "/></g></g></g><g fill="#000000" fill-opacity="1"><g transform="translate(425.678982, 427.797864)"><g/></g></g><g fill="#000000" fill-opacity="1"><g transform="translate(429.44536, 427.797864)"><g><path d="M 3.125 -4.421875 L 3.125 -0.59375 L 4.765625 -0.390625 L 4.765625 0 L 0.53125 0 L 0.53125 -0.390625 L 1.703125 -0.59375 L 1.703125 -9.28125 L 0.4375 -9.46875 L 0.4375 -9.859375 L 7.828125 -9.859375 L 7.828125 -7.5 L 7.34375 -7.5 L 7.109375 -9.09375 C 6.554688 -9.164062 5.765625 -9.203125 4.734375 -9.203125 L 3.125 -9.203125 L 3.125 -5.09375 L 6.03125 -5.09375 L 6.25 -6.265625 L 6.703125 -6.265625 L 6.703125 -3.234375 L 6.25 -3.234375 L 6.03125 -4.421875 Z M 3.125 -4.421875 "/></g></g></g><g fill="#000000" fill-opacity="1"><g transform="translate(437.824081, 427.797864)"><g><path d="M 3.21875 -0.59375 L 4.484375 -0.390625 L 4.484375 0 L 0.546875 0 L 0.546875 -0.390625 L 1.8125 -0.59375 L 1.8125 -9.28125 L 0.546875 -9.46875 L 0.546875 -9.859375 L 4.484375 -9.859375 L 4.484375 -9.46875 L 3.21875 -9.28125 Z M 3.21875 -0.59375 "/></g></g></g><g fill="#000000" fill-opacity="1"><g transform="translate(442.841015, 427.797864)"><g><path d="M 4.640625 -9.46875 L 3.125 -9.28125 L 3.125 -0.625 L 5.0625 -0.625 C 6.101562 -0.625 6.867188 -0.675781 7.359375 -0.78125 L 7.8125 -2.828125 L 8.296875 -2.828125 L 8.15625 0 L 0.4375 0 L 0.4375 -0.390625 L 1.703125 -0.59375 L 1.703125 -9.28125 L 0.4375 -9.46875 L 0.4375 -9.859375 L 4.640625 -9.859375 Z M 4.640625 -9.46875 "/></g></g></g><g fill="#000000" fill-opacity="1"><g transform="translate(452.043631, 427.797864)"><g><path d="M 6.34375 0 L 6.078125 0 L 2.46875 -8.484375 L 2.46875 -0.59375 L 3.796875 -0.390625 L 3.796875 0 L 0.4375 0 L 0.4375 -0.390625 L 1.703125 -0.59375 L 1.703125 -9.28125 L 0.4375 -9.46875 L 0.4375 -9.859375 L 3.421875 -9.859375 L 6.625 -2.359375 L 10.125 -9.859375 L 12.953125 -9.859375 L 12.953125 -9.46875 L 11.6875 -9.28125 L 11.6875 -0.59375 L 12.953125 -0.390625 L 12.953125 0 L 8.953125 0 L 8.953125 -0.390625 L 10.28125 -0.59375 L 10.28125 -8.484375 Z M 6.34375 0 "/></g></g></g><g fill="#000000" fill-opacity="1"><g transform="translate(465.439286, 427.797864)"><g><path d="M 6.34375 0 L 6.078125 0 L 2.46875 -8.484375 L 2.46875 -0.59375 L 3.796875 -0.390625 L 3.796875 0 L 0.4375 0 L 0.4375 -0.390625 L 1.703125 -0.59375 L 1.703125 -9.28125 L 0.4375 -9.46875 L 0.4375 -9.859375 L 3.421875 -9.859375 L 6.625 -2.359375 L 10.125 -9.859375 L 12.953125 -9.859375 L 12.953125 -9.46875 L 11.6875 -9.28125 L 11.6875 -0.59375 L 12.953125 -0.390625 L 12.953125 0 L 8.953125 0 L 8.953125 -0.390625 L 10.28125 -0.59375 L 10.28125 -8.484375 Z M 6.34375 0 "/></g></g></g><g fill="#000000" fill-opacity="1"><g transform="translate(478.834929, 427.797864)"><g><path d="M 3.390625 -0.390625 L 3.390625 0 L 0.140625 0 L 0.140625 -0.390625 L 1.265625 -0.59375 L 4.625 -9.9375 L 6.03125 -9.9375 L 9.515625 -0.59375 L 10.765625 -0.390625 L 10.765625 0 L 6.59375 0 L 6.59375 -0.390625 L 7.921875 -0.59375 L 6.9375 -3.4375 L 3.0625 -3.4375 L 2.0625 -0.59375 Z M 4.96875 -8.890625 L 3.28125 -4.09375 L 6.71875 -4.09375 Z M 4.96875 -8.890625 "/></g></g></g><g fill="#000000" fill-opacity="1"><g transform="translate(489.714749, 427.797864)"><g><path d="M 9.953125 -9.859375 L 9.953125 -9.46875 L 8.8125 -9.28125 L 5.4375 -5.984375 L 9.65625 -0.59375 L 10.71875 -0.390625 L 10.71875 0 L 8.3125 0 L 4.453125 -4.984375 L 3.125 -3.921875 L 3.125 -0.59375 L 4.53125 -0.390625 L 4.53125 0 L 0.4375 0 L 0.4375 -0.390625 L 1.703125 -0.59375 L 1.703125 -9.28125 L 0.4375 -9.46875 L 0.4375 -9.859375 L 4.390625 -9.859375 L 4.390625 -9.46875 L 3.125 -9.28125 L 3.125 -4.640625 L 7.84375 -9.28125 L 6.859375 -9.46875 L 6.859375 -9.859375 Z M 9.953125 -9.859375 "/></g></g></g><g fill="#000000" fill-opacity="1"><g transform="translate(500.594569, 427.797864)"><g><path d="M 3.21875 -0.59375 L 4.484375 -0.390625 L 4.484375 0 L 0.546875 0 L 0.546875 -0.390625 L 1.8125 -0.59375 L 1.8125 -9.28125 L 0.546875 -9.46875 L 0.546875 -9.859375 L 4.484375 -9.859375 L 4.484375 -9.46875 L 3.21875 -9.28125 Z M 3.21875 -0.59375 "/></g></g></g><g fill="#000000" fill-opacity="1"><g transform="translate(505.611503, 427.797864)"><g><path d="M 8.5 -9.28125 L 7.171875 -9.46875 L 7.171875 -9.859375 L 10.53125 -9.859375 L 10.53125 -9.46875 L 9.265625 -9.28125 L 9.265625 0 L 8.546875 0 L 2.46875 -8.875 L 2.46875 -0.59375 L 3.796875 -0.390625 L 3.796875 0 L 0.4375 0 L 0.4375 -0.390625 L 1.703125 -0.59375 L 1.703125 -9.28125 L 0.4375 -9.46875 L 0.4375 -9.859375 L 3.421875 -9.859375 L 8.5 -2.5625 Z M 8.5 -9.28125 "/></g></g></g><g fill="#000000" fill-opacity="1"><g transform="translate(516.491346, 427.797864)"><g><path d="M 9.4375 -0.515625 C 8.875 -0.328125 8.285156 -0.171875 7.671875 -0.046875 C 7.054688 0.078125 6.394531 0.140625 5.6875 0.140625 C 4.09375 0.140625 2.847656 -0.285156 1.953125 -1.140625 C 1.066406 -2.003906 0.625 -3.226562 0.625 -4.8125 C 0.625 -6.539062 1.054688 -7.832031 1.921875 -8.6875 C 2.785156 -9.539062 4.050781 -9.96875 5.71875 -9.96875 C 6.914062 -9.96875 8.070312 -9.820312 9.1875 -9.53125 L 9.1875 -7.40625 L 8.6875 -7.40625 L 8.5 -8.640625 C 8.15625 -8.878906 7.742188 -9.0625 7.265625 -9.1875 C 6.796875 -9.320312 6.300781 -9.390625 5.78125 -9.390625 C 4.519531 -9.390625 3.597656 -9.015625 3.015625 -8.265625 C 2.441406 -7.515625 2.15625 -6.367188 2.15625 -4.828125 C 2.15625 -3.378906 2.453125 -2.28125 3.046875 -1.53125 C 3.648438 -0.789062 4.535156 -0.421875 5.703125 -0.421875 C 6.117188 -0.421875 6.550781 -0.46875 7 -0.5625 C 7.445312 -0.664062 7.789062 -0.785156 8.03125 -0.921875 L 8.03125 -3.71875 L 6.765625 -3.90625 L 6.765625 -4.3125 L 10.40625 -4.3125 L 10.40625 -3.90625 L 9.4375 -3.71875 Z M 9.4375 -0.515625 "/></g></g></g><path fill="#ff689a" d="M 155.390625 393.667969 C 158.824219 389.320312 158.746094 381.609375 158.746094 381.609375 C 158.746094 367.957031 143.308594 368.710938 140.121094 368.710938 C 134.59375 368.730469 127.644531 370.945312 124.121094 376.726562 C 120.59375 382.507812 113.824219 382.507812 113.824219 382.507812 C 113.824219 382.507812 105.742188 382.246094 105.671875 386.363281 C 105.671875 391.925781 114.042969 392.203125 114.042969 392.203125 C 114.042969 392.203125 121.394531 392.203125 127.917969 392.203125 C 134.445312 392.203125 133.703125 399.367188 133.703125 399.367188 C 133.703125 399.367188 133.742188 404.300781 128.664062 408.515625 C 123.585938 412.726562 123.570312 421.332031 123.570312 421.332031 C 123.570312 440.933594 153.140625 441.070312 156.996094 441.429688 C 160.847656 441.789062 165.832031 442.089844 175.125 441.429688 C 206.609375 439.191406 222.410156 417.972656 222.6875 413.402344 C 222.960938 408.832031 219.339844 408.761719 218.816406 408.96875 C 218.292969 409.175781 221.199219 403.378906 219.601562 401.34375 C 218.003906 399.304688 216.132812 398.425781 213.160156 398.867188 C 210.1875 399.304688 209.304688 401.179688 204.625 402.664062 C 199.945312 404.152344 194.933594 402.386719 194.933594 402.386719 C 194.933594 402.386719 181.550781 398.367188 175.824219 398.148438 C 170.097656 397.925781 161.253906 399.609375 160.078125 399.632812 C 158.898438 399.660156 154.679688 399.410156 154.679688 396.65625 C 154.675781 396.65625 154.757812 394.628906 155.390625 393.667969 Z M 134.527344 382.332031 C 133.59375 382.332031 132.835938 381.570312 132.835938 380.636719 C 132.835938 379.707031 133.59375 378.945312 134.527344 378.945312 C 135.460938 378.945312 136.21875 379.707031 136.21875 380.636719 C 136.21875 381.570312 135.460938 382.332031 134.527344 382.332031 Z M 134.527344 382.332031 " fill-opacity="1" fill-rule="nonzero"/></svg>