<svg xmlns="http://www.w3.org/2000/svg" xmlns:xlink="http://www.w3.org/1999/xlink" width="1080" zoomAndPan="magnify" viewBox="0 0 810 809.999993" height="1080" preserveAspectRatio="xMidYMid meet" version="1.0"><defs><g/></defs><rect x="-81" width="972" fill="#ffffff" y="-80.999999" height="971.999992" fill-opacity="1"/><rect x="-81" width="972" fill="#000000" y="-80.999999" height="971.999992" fill-opacity="1"/><path fill="#ff689a" d="M 183.480469 393.667969 C 186.914062 389.320312 186.832031 381.609375 186.832031 381.609375 C 186.832031 367.957031 171.398438 368.710938 168.210938 368.710938 C 162.683594 368.730469 155.730469 370.945312 152.207031 376.726562 C 148.683594 382.507812 141.910156 382.507812 141.910156 382.507812 C 141.910156 382.507812 133.832031 382.246094 133.761719 386.363281 C 133.761719 391.925781 142.132812 392.203125 142.132812 392.203125 C 142.132812 392.203125 149.484375 392.203125 156.007812 392.203125 C 162.53125 392.203125 161.789062 399.367188 161.789062 399.367188 C 161.789062 399.367188 161.832031 404.300781 156.753906 408.515625 C 151.675781 412.726562 151.660156 421.332031 151.660156 421.332031 C 151.660156 440.933594 181.230469 441.070312 185.082031 441.429688 C 188.9375 441.789062 193.921875 442.089844 203.214844 441.429688 C 234.699219 439.191406 250.5 417.972656 250.773438 413.402344 C 251.050781 408.832031 247.429688 408.761719 246.90625 408.96875 C 246.382812 409.175781 249.285156 403.378906 247.691406 401.34375 C 246.09375 399.304688 244.222656 398.425781 241.25 398.867188 C 238.277344 399.304688 237.394531 401.179688 232.714844 402.664062 C 228.03125 404.152344 223.019531 402.386719 223.019531 402.386719 C 223.019531 402.386719 209.640625 398.367188 203.914062 398.148438 C 198.1875 397.925781 189.34375 399.609375 188.167969 399.632812 C 186.988281 399.660156 182.769531 399.410156 182.769531 396.65625 C 182.765625 396.65625 182.847656 394.628906 183.480469 393.667969 Z M 162.617188 382.332031 C 161.679688 382.332031 160.925781 381.570312 160.925781 380.640625 C 160.925781 379.707031 161.683594 378.945312 162.617188 378.945312 C 163.550781 378.945312 164.308594 379.707031 164.308594 380.640625 C 164.308594 381.570312 163.550781 382.332031 162.617188 382.332031 Z M 162.617188 382.332031 " fill-opacity="1" fill-rule="nonzero"/><g fill="#ffffff" fill-opacity="1"><g transform="translate(276.922958, 408.527255)"><g><path d="M 1.671875 -6.296875 L 3.015625 -6.296875 L 3.703125 -3 C 4.140625 -2.5 4.789062 -2.078125 5.65625 -1.734375 C 6.519531 -1.398438 7.421875 -1.234375 8.359375 -1.234375 C 11.285156 -1.234375 12.75 -2.441406 12.75 -4.859375 C 12.75 -5.617188 12.46875 -6.257812 11.90625 -6.78125 C 11.351562 -7.300781 10.476562 -7.765625 9.28125 -8.171875 C 7.53125 -8.753906 6.269531 -9.226562 5.5 -9.59375 C 4.726562 -9.957031 4.078125 -10.382812 3.546875 -10.875 C 3.015625 -11.363281 2.585938 -11.957031 2.265625 -12.65625 C 1.953125 -13.351562 1.796875 -14.21875 1.796875 -15.25 C 1.796875 -17.050781 2.410156 -18.425781 3.640625 -19.375 C 4.867188 -20.320312 6.671875 -20.796875 9.046875 -20.796875 C 10.765625 -20.796875 12.664062 -20.578125 14.75 -20.140625 L 14.75 -15.25 L 13.375 -15.25 L 12.6875 -18.0625 C 11.644531 -18.820312 10.429688 -19.203125 9.046875 -19.203125 C 7.785156 -19.203125 6.816406 -18.96875 6.140625 -18.5 C 5.472656 -18.03125 5.140625 -17.316406 5.140625 -16.359375 C 5.140625 -15.671875 5.421875 -15.082031 5.984375 -14.59375 C 6.546875 -14.113281 7.421875 -13.6875 8.609375 -13.3125 C 10.953125 -12.539062 12.5625 -11.867188 13.4375 -11.296875 C 14.3125 -10.734375 14.976562 -10.03125 15.4375 -9.1875 C 15.894531 -8.351562 16.125 -7.367188 16.125 -6.234375 C 16.125 -1.867188 13.554688 0.3125 8.421875 0.3125 C 7.242188 0.3125 6.039062 0.207031 4.8125 0 C 3.59375 -0.195312 2.546875 -0.457031 1.671875 -0.78125 Z M 1.671875 -6.296875 "/></g></g></g><g fill="#ffffff" fill-opacity="1"><g transform="translate(294.376582, 408.527255)"><g><path d="M 6.625 -10.3125 C 6.625 -7.039062 7.066406 -4.707031 7.953125 -3.3125 C 8.847656 -1.925781 10.269531 -1.234375 12.21875 -1.234375 C 14.144531 -1.234375 15.554688 -1.929688 16.453125 -3.328125 C 17.347656 -4.722656 17.796875 -7.050781 17.796875 -10.3125 C 17.796875 -13.550781 17.347656 -15.847656 16.453125 -17.203125 C 15.554688 -18.566406 14.144531 -19.25 12.21875 -19.25 C 10.269531 -19.25 8.847656 -18.566406 7.953125 -17.203125 C 7.066406 -15.847656 6.625 -13.550781 6.625 -10.3125 Z M 1.53125 -10.3125 C 1.53125 -17.300781 5.09375 -20.796875 12.21875 -20.796875 C 15.726562 -20.796875 18.382812 -19.90625 20.1875 -18.125 C 21.988281 -16.351562 22.890625 -13.75 22.890625 -10.3125 C 22.890625 -6.820312 21.976562 -4.175781 20.15625 -2.375 C 18.332031 -0.582031 15.6875 0.3125 12.21875 0.3125 C 8.75 0.3125 6.097656 -0.582031 4.265625 -2.375 C 2.441406 -4.164062 1.53125 -6.8125 1.53125 -10.3125 Z M 1.53125 -10.3125 "/></g></g></g><g fill="#ffffff" fill-opacity="1"><g transform="translate(318.787137, 408.527255)"><g><path d="M 17.703125 -19.046875 L 14.9375 -19.4375 L 14.9375 -20.5625 L 22.25 -20.5625 L 22.25 -19.4375 L 19.625 -19.046875 L 19.625 0 L 17.828125 0 L 5.15625 -16.53125 L 5.15625 -1.53125 L 7.90625 -1.125 L 7.90625 0 L 0.59375 0 L 0.59375 -1.125 L 3.234375 -1.53125 L 3.234375 -19.046875 L 0.59375 -19.4375 L 0.59375 -20.5625 L 7.640625 -20.5625 L 17.703125 -7.421875 Z M 17.703125 -19.046875 "/></g></g></g><g fill="#ffffff" fill-opacity="1"><g transform="translate(341.450798, 408.527255)"><g><path d="M 16.046875 -10.28125 C 16.046875 -13.238281 15.503906 -15.410156 14.421875 -16.796875 C 13.335938 -18.179688 11.578125 -18.875 9.140625 -18.875 L 8 -18.875 L 8 -1.75 C 8.976562 -1.664062 9.867188 -1.625 10.671875 -1.625 C 11.992188 -1.625 13.039062 -1.910156 13.8125 -2.484375 C 14.582031 -3.054688 15.144531 -3.953125 15.5 -5.171875 C 15.863281 -6.398438 16.046875 -8.101562 16.046875 -10.28125 Z M 10.3125 -20.5625 C 14 -20.5625 16.722656 -19.722656 18.484375 -18.046875 C 20.253906 -16.378906 21.140625 -13.828125 21.140625 -10.390625 C 21.140625 -6.867188 20.296875 -4.242188 18.609375 -2.515625 C 16.921875 -0.796875 14.367188 0.0625 10.953125 0.0625 L 4.078125 0 L 0.546875 0 L 0.546875 -1.125 L 3.1875 -1.53125 L 3.1875 -19.046875 L 0.546875 -19.4375 L 0.546875 -20.5625 Z M 10.3125 -20.5625 "/></g></g></g><g fill="#ffffff" fill-opacity="1"><g transform="translate(364.114459, 408.527255)"><g><path d="M 12.84375 -1.875 C 14.375 -1.875 15.554688 -2.300781 16.390625 -3.15625 C 17.234375 -4.019531 17.65625 -5.285156 17.65625 -6.953125 L 17.65625 -19.046875 L 14.890625 -19.4375 L 14.890625 -20.5625 L 21.890625 -20.5625 L 21.890625 -19.4375 L 19.5625 -19.046875 L 19.5625 -7.0625 C 19.5625 -4.695312 18.875 -2.878906 17.5 -1.609375 C 16.132812 -0.335938 14.179688 0.296875 11.640625 0.296875 C 8.890625 0.296875 6.78125 -0.34375 5.3125 -1.625 C 3.84375 -2.914062 3.109375 -4.769531 3.109375 -7.1875 L 3.109375 -19.046875 L 0.78125 -19.4375 L 0.78125 -20.5625 L 10.578125 -20.5625 L 10.578125 -19.4375 L 7.9375 -19.046875 L 7.9375 -6.984375 C 7.9375 -5.335938 8.351562 -4.070312 9.1875 -3.1875 C 10.019531 -2.3125 11.238281 -1.875 12.84375 -1.875 Z M 12.84375 -1.875 "/></g></g></g><g fill="#ffffff" fill-opacity="1"><g transform="translate(386.77812, 408.527255)"><g><path d="M 12.484375 0.3125 C 9.046875 0.3125 6.359375 -0.601562 4.421875 -2.4375 C 2.492188 -4.269531 1.53125 -6.804688 1.53125 -10.046875 C 1.53125 -13.554688 2.453125 -16.222656 4.296875 -18.046875 C 6.140625 -19.878906 8.863281 -20.796875 12.46875 -20.796875 C 14.851562 -20.796875 17.320312 -20.453125 19.875 -19.765625 L 19.96875 -14.828125 L 18.59375 -14.828125 L 18.15625 -17.796875 C 16.8125 -18.722656 15.242188 -19.1875 13.453125 -19.1875 C 11.085938 -19.1875 9.359375 -18.445312 8.265625 -16.96875 C 7.171875 -15.488281 6.625 -13.195312 6.625 -10.09375 C 6.625 -7.21875 7.195312 -5.023438 8.34375 -3.515625 C 9.488281 -2.015625 11.148438 -1.265625 13.328125 -1.265625 C 14.484375 -1.265625 15.492188 -1.414062 16.359375 -1.71875 C 17.222656 -2.03125 17.898438 -2.398438 18.390625 -2.828125 L 18.890625 -6.203125 L 20.28125 -6.203125 L 20.1875 -0.984375 C 19.269531 -0.617188 18.070312 -0.3125 16.59375 -0.0625 C 15.125 0.1875 13.753906 0.3125 12.484375 0.3125 Z M 12.484375 0.3125 "/></g></g></g><g fill="#ffffff" fill-opacity="1"><g transform="translate(409.441781, 408.527255)"><g><path d="M 22.515625 -20.5625 L 22.515625 -19.4375 L 20 -19.046875 L 13.21875 -13.046875 L 22.25 -1.53125 L 24.171875 -1.125 L 24.171875 0 L 17.453125 0 L 9.78125 -9.90625 L 8 -8.375 L 8 -1.53125 L 10.953125 -1.125 L 10.953125 0 L 0.53125 0 L 0.53125 -1.125 L 3.171875 -1.53125 L 3.171875 -19.046875 L 0.53125 -19.4375 L 0.53125 -20.5625 L 10.65625 -20.5625 L 10.65625 -19.4375 L 8 -19.046875 L 8 -10.671875 L 17.359375 -19.046875 L 15.484375 -19.4375 L 15.484375 -20.5625 Z M 22.515625 -20.5625 "/></g></g></g><g fill="#ffffff" fill-opacity="1"><g transform="translate(442.860449, 408.527255)"><g><path d="M 6.5 -9.234375 L 6.5 -1.234375 L 9.921875 -0.8125 L 9.921875 0 L 1.109375 0 L 1.109375 -0.8125 L 3.546875 -1.234375 L 3.546875 -19.359375 L 0.90625 -19.75 L 0.90625 -20.5625 L 16.328125 -20.5625 L 16.328125 -15.640625 L 15.3125 -15.640625 L 14.828125 -18.96875 C 13.679688 -19.113281 12.023438 -19.1875 9.859375 -19.1875 L 6.5 -19.1875 L 6.5 -10.609375 L 12.546875 -10.609375 L 13.03125 -13.0625 L 13.96875 -13.0625 L 13.96875 -6.75 L 13.03125 -6.75 L 12.546875 -9.234375 Z M 6.5 -9.234375 "/></g></g></g><g fill="#ffffff" fill-opacity="1"><g transform="translate(460.314073, 408.527255)"><g><path d="M 6.71875 -1.234375 L 9.34375 -0.8125 L 9.34375 0 L 1.140625 0 L 1.140625 -0.8125 L 3.765625 -1.234375 L 3.765625 -19.359375 L 1.140625 -19.75 L 1.140625 -20.5625 L 9.34375 -20.5625 L 9.34375 -19.75 L 6.71875 -19.359375 Z M 6.71875 -1.234375 "/></g></g></g><g fill="#ffffff" fill-opacity="1"><g transform="translate(470.764795, 408.527255)"><g><path d="M 9.671875 -19.75 L 6.5 -19.359375 L 6.5 -1.3125 L 10.546875 -1.3125 C 12.722656 -1.3125 14.320312 -1.414062 15.34375 -1.625 L 16.296875 -5.90625 L 17.296875 -5.90625 L 17.015625 0 L 0.90625 0 L 0.90625 -0.8125 L 3.546875 -1.234375 L 3.546875 -19.359375 L 0.90625 -19.75 L 0.90625 -20.5625 L 9.671875 -20.5625 Z M 9.671875 -19.75 "/></g></g></g><g fill="#ffffff" fill-opacity="1"><g transform="translate(489.934666, 408.527255)"><g><path d="M 13.21875 0 L 12.671875 0 L 5.15625 -17.6875 L 5.15625 -1.234375 L 7.90625 -0.8125 L 7.90625 0 L 0.90625 0 L 0.90625 -0.8125 L 3.546875 -1.234375 L 3.546875 -19.359375 L 0.90625 -19.75 L 0.90625 -20.5625 L 7.125 -20.5625 L 13.8125 -4.921875 L 21.109375 -20.5625 L 26.984375 -20.5625 L 26.984375 -19.75 L 24.359375 -19.359375 L 24.359375 -1.234375 L 26.984375 -0.8125 L 26.984375 0 L 18.65625 0 L 18.65625 -0.8125 L 21.40625 -1.234375 L 21.40625 -17.6875 Z M 13.21875 0 "/></g></g></g><g fill="#ffffff" fill-opacity="1"><g transform="translate(287.786238, 425.416144)"><g><path d="M 5.578125 0 L 5.359375 0 L 2.171875 -7.484375 L 2.171875 -0.515625 L 3.34375 -0.34375 L 3.34375 0 L 0.375 0 L 0.375 -0.34375 L 1.5 -0.515625 L 1.5 -8.1875 L 0.375 -8.359375 L 0.375 -8.703125 L 3.015625 -8.703125 L 5.84375 -2.078125 L 8.921875 -8.703125 L 11.40625 -8.703125 L 11.40625 -8.359375 L 10.296875 -8.1875 L 10.296875 -0.515625 L 11.40625 -0.34375 L 11.40625 0 L 7.890625 0 L 7.890625 -0.34375 L 9.046875 -0.515625 L 9.046875 -7.484375 Z M 5.578125 0 "/></g></g></g><g fill="#ffffff" fill-opacity="1"><g transform="translate(299.581503, 425.416144)"><g><path d="M 1.890625 -4.359375 C 1.890625 -2.960938 2.125 -1.945312 2.59375 -1.3125 C 3.0625 -0.6875 3.789062 -0.375 4.78125 -0.375 C 5.769531 -0.375 6.5 -0.6875 6.96875 -1.3125 C 7.445312 -1.945312 7.6875 -2.960938 7.6875 -4.359375 C 7.6875 -5.742188 7.453125 -6.742188 6.984375 -7.359375 C 6.515625 -7.972656 5.78125 -8.28125 4.78125 -8.28125 C 3.789062 -8.28125 3.0625 -7.972656 2.59375 -7.359375 C 2.125 -6.742188 1.890625 -5.742188 1.890625 -4.359375 Z M 0.546875 -4.359375 C 0.546875 -7.316406 1.957031 -8.796875 4.78125 -8.796875 C 6.1875 -8.796875 7.242188 -8.421875 7.953125 -7.671875 C 8.671875 -6.921875 9.03125 -5.816406 9.03125 -4.359375 C 9.03125 -2.878906 8.664062 -1.757812 7.9375 -1 C 7.21875 -0.25 6.164062 0.125 4.78125 0.125 C 3.40625 0.125 2.351562 -0.25 1.625 -1 C 0.90625 -1.757812 0.546875 -2.878906 0.546875 -4.359375 Z M 0.546875 -4.359375 "/></g></g></g><g fill="#ffffff" fill-opacity="1"><g transform="translate(309.161512, 425.416144)"><g><path d="M 2.046875 0 L 2.046875 -0.34375 L 3.421875 -0.515625 L 3.421875 -8.140625 L 3.09375 -8.140625 C 2 -8.140625 1.25 -8.097656 0.84375 -8.015625 L 0.671875 -6.65625 L 0.234375 -6.65625 L 0.234375 -8.703125 L 7.890625 -8.703125 L 7.890625 -6.65625 L 7.4375 -6.65625 L 7.265625 -8.015625 C 7.140625 -8.035156 6.859375 -8.054688 6.421875 -8.078125 C 5.984375 -8.109375 5.503906 -8.125 4.984375 -8.125 L 4.671875 -8.125 L 4.671875 -0.515625 L 6.046875 -0.34375 L 6.046875 0 Z M 2.046875 0 "/></g></g></g><g fill="#ffffff" fill-opacity="1"><g transform="translate(317.264684, 425.416144)"><g><path d="M 2.84375 -0.515625 L 3.953125 -0.34375 L 3.953125 0 L 0.484375 0 L 0.484375 -0.34375 L 1.59375 -0.515625 L 1.59375 -8.1875 L 0.484375 -8.359375 L 0.484375 -8.703125 L 3.953125 -8.703125 L 3.953125 -8.359375 L 2.84375 -8.1875 Z M 2.84375 -0.515625 "/></g></g></g><g fill="#ffffff" fill-opacity="1"><g transform="translate(321.68224, 425.416144)"><g><path d="M 1.890625 -4.359375 C 1.890625 -2.960938 2.125 -1.945312 2.59375 -1.3125 C 3.0625 -0.6875 3.789062 -0.375 4.78125 -0.375 C 5.769531 -0.375 6.5 -0.6875 6.96875 -1.3125 C 7.445312 -1.945312 7.6875 -2.960938 7.6875 -4.359375 C 7.6875 -5.742188 7.453125 -6.742188 6.984375 -7.359375 C 6.515625 -7.972656 5.78125 -8.28125 4.78125 -8.28125 C 3.789062 -8.28125 3.0625 -7.972656 2.59375 -7.359375 C 2.125 -6.742188 1.890625 -5.742188 1.890625 -4.359375 Z M 0.546875 -4.359375 C 0.546875 -7.316406 1.957031 -8.796875 4.78125 -8.796875 C 6.1875 -8.796875 7.242188 -8.421875 7.953125 -7.671875 C 8.671875 -6.921875 9.03125 -5.816406 9.03125 -4.359375 C 9.03125 -2.878906 8.664062 -1.757812 7.9375 -1 C 7.21875 -0.25 6.164062 0.125 4.78125 0.125 C 3.40625 0.125 2.351562 -0.25 1.625 -1 C 0.90625 -1.757812 0.546875 -2.878906 0.546875 -4.359375 Z M 0.546875 -4.359375 "/></g></g></g><g fill="#ffffff" fill-opacity="1"><g transform="translate(331.262249, 425.416144)"><g><path d="M 7.484375 -8.1875 L 6.3125 -8.359375 L 6.3125 -8.703125 L 9.28125 -8.703125 L 9.28125 -8.359375 L 8.15625 -8.1875 L 8.15625 0 L 7.53125 0 L 2.171875 -7.828125 L 2.171875 -0.515625 L 3.34375 -0.34375 L 3.34375 0 L 0.375 0 L 0.375 -0.34375 L 1.5 -0.515625 L 1.5 -8.1875 L 0.375 -8.359375 L 0.375 -8.703125 L 3.015625 -8.703125 L 7.484375 -2.25 Z M 7.484375 -8.1875 "/></g></g></g><g fill="#ffffff" fill-opacity="1"><g transform="translate(340.842258, 425.416144)"><g/></g></g><g fill="#ffffff" fill-opacity="1"><g transform="translate(344.158664, 425.416144)"><g><path d="M 8.3125 -0.453125 C 7.8125 -0.285156 7.289062 -0.144531 6.75 -0.03125 C 6.21875 0.0703125 5.640625 0.125 5.015625 0.125 C 3.609375 0.125 2.507812 -0.253906 1.71875 -1.015625 C 0.9375 -1.773438 0.546875 -2.851562 0.546875 -4.25 C 0.546875 -5.769531 0.925781 -6.90625 1.6875 -7.65625 C 2.445312 -8.414062 3.566406 -8.796875 5.046875 -8.796875 C 6.097656 -8.796875 7.113281 -8.664062 8.09375 -8.40625 L 8.09375 -6.53125 L 7.65625 -6.53125 L 7.484375 -7.609375 C 7.179688 -7.828125 6.820312 -7.992188 6.40625 -8.109375 C 5.988281 -8.222656 5.550781 -8.28125 5.09375 -8.28125 C 3.988281 -8.28125 3.175781 -7.945312 2.65625 -7.28125 C 2.144531 -6.625 1.890625 -5.617188 1.890625 -4.265625 C 1.890625 -2.984375 2.15625 -2.015625 2.6875 -1.359375 C 3.21875 -0.703125 4 -0.375 5.03125 -0.375 C 5.394531 -0.375 5.773438 -0.414062 6.171875 -0.5 C 6.566406 -0.582031 6.867188 -0.6875 7.078125 -0.8125 L 7.078125 -3.28125 L 5.953125 -3.453125 L 5.953125 -3.796875 L 9.171875 -3.796875 L 9.171875 -3.453125 L 8.3125 -3.28125 Z M 8.3125 -0.453125 "/></g></g></g><g fill="#ffffff" fill-opacity="1"><g transform="translate(353.738673, 425.416144)"><g><path d="M 2.75 -3.8125 L 2.75 -0.515625 L 4.0625 -0.34375 L 4.0625 0 L 0.46875 0 L 0.46875 -0.34375 L 1.5 -0.515625 L 1.5 -8.1875 L 0.375 -8.359375 L 0.375 -8.703125 L 4.125 -8.703125 C 5.21875 -8.703125 6.019531 -8.515625 6.53125 -8.140625 C 7.050781 -7.773438 7.3125 -7.1875 7.3125 -6.375 C 7.3125 -5.789062 7.15625 -5.285156 6.84375 -4.859375 C 6.53125 -4.441406 6.09375 -4.15625 5.53125 -4 L 7.890625 -0.515625 L 8.828125 -0.34375 L 8.828125 0 L 6.75 0 L 4.3125 -3.8125 Z M 6.03125 -6.28125 C 6.03125 -6.945312 5.867188 -7.414062 5.546875 -7.6875 C 5.222656 -7.96875 4.660156 -8.109375 3.859375 -8.109375 L 2.75 -8.109375 L 2.75 -4.390625 L 3.890625 -4.390625 C 4.660156 -4.390625 5.207031 -4.535156 5.53125 -4.828125 C 5.863281 -5.117188 6.03125 -5.601562 6.03125 -6.28125 Z M 6.03125 -6.28125 "/></g></g></g><g fill="#ffffff" fill-opacity="1"><g transform="translate(362.586741, 425.416144)"><g><path d="M 2.984375 -0.34375 L 2.984375 0 L 0.125 0 L 0.125 -0.34375 L 1.109375 -0.515625 L 4.078125 -8.765625 L 5.3125 -8.765625 L 8.375 -0.515625 L 9.484375 -0.34375 L 9.484375 0 L 5.8125 0 L 5.8125 -0.34375 L 6.96875 -0.515625 L 6.109375 -3.03125 L 2.6875 -3.03125 L 1.8125 -0.515625 Z M 4.375 -7.828125 L 2.890625 -3.609375 L 5.90625 -3.609375 Z M 4.375 -7.828125 "/></g></g></g><g fill="#ffffff" fill-opacity="1"><g transform="translate(372.16675, 425.416144)"><g><path d="M 5.5625 -6.125 C 5.5625 -6.832031 5.394531 -7.335938 5.0625 -7.640625 C 4.726562 -7.953125 4.164062 -8.109375 3.375 -8.109375 L 2.75 -8.109375 L 2.75 -4 L 3.421875 -4 C 4.148438 -4 4.6875 -4.164062 5.03125 -4.5 C 5.382812 -4.832031 5.5625 -5.375 5.5625 -6.125 Z M 2.75 -3.40625 L 2.75 -0.515625 L 4.125 -0.34375 L 4.125 0 L 0.46875 0 L 0.46875 -0.34375 L 1.5 -0.515625 L 1.5 -8.1875 L 0.375 -8.359375 L 0.375 -8.703125 L 3.65625 -8.703125 C 5.78125 -8.703125 6.84375 -7.847656 6.84375 -6.140625 C 6.84375 -5.242188 6.570312 -4.5625 6.03125 -4.09375 C 5.5 -3.632812 4.726562 -3.40625 3.71875 -3.40625 Z M 2.75 -3.40625 "/></g></g></g><g fill="#ffffff" fill-opacity="1"><g transform="translate(379.544458, 425.416144)"><g><path d="M 0.375 0 L 0.375 -0.34375 L 1.5 -0.515625 L 1.5 -8.1875 L 0.375 -8.359375 L 0.375 -8.703125 L 3.859375 -8.703125 L 3.859375 -8.359375 L 2.75 -8.1875 L 2.75 -4.765625 L 6.828125 -4.765625 L 6.828125 -8.1875 L 5.71875 -8.359375 L 5.71875 -8.703125 L 9.1875 -8.703125 L 9.1875 -8.359375 L 8.078125 -8.1875 L 8.078125 -0.515625 L 9.1875 -0.34375 L 9.1875 0 L 5.71875 0 L 5.71875 -0.34375 L 6.828125 -0.515625 L 6.828125 -4.1875 L 2.75 -4.1875 L 2.75 -0.515625 L 3.859375 -0.34375 L 3.859375 0 Z M 0.375 0 "/></g></g></g><g fill="#ffffff" fill-opacity="1"><g transform="translate(389.124467, 425.416144)"><g><path d="M 2.84375 -0.515625 L 3.953125 -0.34375 L 3.953125 0 L 0.484375 0 L 0.484375 -0.34375 L 1.59375 -0.515625 L 1.59375 -8.1875 L 0.484375 -8.359375 L 0.484375 -8.703125 L 3.953125 -8.703125 L 3.953125 -8.359375 L 2.84375 -8.1875 Z M 2.84375 -0.515625 "/></g></g></g><g fill="#ffffff" fill-opacity="1"><g transform="translate(393.542023, 425.416144)"><g><path d="M 5.015625 0.125 C 3.609375 0.125 2.507812 -0.253906 1.71875 -1.015625 C 0.9375 -1.785156 0.546875 -2.863281 0.546875 -4.25 C 0.546875 -5.738281 0.921875 -6.867188 1.671875 -7.640625 C 2.429688 -8.410156 3.554688 -8.796875 5.046875 -8.796875 C 5.941406 -8.796875 6.910156 -8.6875 7.953125 -8.46875 L 7.984375 -6.5625 L 7.5625 -6.5625 L 7.359375 -7.6875 C 7.054688 -7.875 6.707031 -8.019531 6.3125 -8.125 C 5.914062 -8.226562 5.507812 -8.28125 5.09375 -8.28125 C 3.976562 -8.28125 3.164062 -7.953125 2.65625 -7.296875 C 2.144531 -6.640625 1.890625 -5.628906 1.890625 -4.265625 C 1.890625 -2.992188 2.15625 -2.023438 2.6875 -1.359375 C 3.226562 -0.703125 4.007812 -0.375 5.03125 -0.375 C 5.519531 -0.375 5.984375 -0.429688 6.421875 -0.546875 C 6.859375 -0.660156 7.203125 -0.820312 7.453125 -1.03125 L 7.6875 -2.328125 L 8.109375 -2.328125 L 8.078125 -0.28125 C 7.128906 -0.0078125 6.109375 0.125 5.015625 0.125 Z M 5.015625 0.125 "/></g></g></g><g fill="#ffffff" fill-opacity="1"><g transform="translate(402.390091, 425.416144)"><g><path d="M 0.90625 -2.34375 L 1.328125 -2.34375 L 1.546875 -1.171875 C 1.703125 -0.960938 1.972656 -0.78125 2.359375 -0.625 C 2.753906 -0.46875 3.144531 -0.390625 3.53125 -0.390625 C 4.132812 -0.390625 4.601562 -0.546875 4.9375 -0.859375 C 5.28125 -1.171875 5.453125 -1.597656 5.453125 -2.140625 C 5.453125 -2.453125 5.382812 -2.707031 5.25 -2.90625 C 5.125 -3.113281 4.953125 -3.285156 4.734375 -3.421875 C 4.523438 -3.566406 4.28125 -3.6875 4 -3.78125 C 3.726562 -3.882812 3.445312 -3.984375 3.15625 -4.078125 C 2.875 -4.179688 2.597656 -4.289062 2.328125 -4.40625 C 2.054688 -4.53125 1.8125 -4.6875 1.59375 -4.875 C 1.382812 -5.0625 1.210938 -5.289062 1.078125 -5.5625 C 0.953125 -5.832031 0.890625 -6.171875 0.890625 -6.578125 C 0.890625 -7.265625 1.144531 -7.804688 1.65625 -8.203125 C 2.175781 -8.597656 2.898438 -8.796875 3.828125 -8.796875 C 4.523438 -8.796875 5.285156 -8.703125 6.109375 -8.515625 L 6.109375 -6.703125 L 5.6875 -6.703125 L 5.453125 -7.765625 C 5.015625 -8.085938 4.472656 -8.25 3.828125 -8.25 C 3.242188 -8.25 2.785156 -8.128906 2.453125 -7.890625 C 2.128906 -7.660156 1.96875 -7.335938 1.96875 -6.921875 C 1.96875 -6.640625 2.035156 -6.40625 2.171875 -6.21875 C 2.304688 -6.03125 2.476562 -5.867188 2.6875 -5.734375 C 2.90625 -5.609375 3.148438 -5.5 3.421875 -5.40625 C 3.691406 -5.3125 3.972656 -5.210938 4.265625 -5.109375 C 4.554688 -5.003906 4.835938 -4.890625 5.109375 -4.765625 C 5.378906 -4.640625 5.617188 -4.476562 5.828125 -4.28125 C 6.046875 -4.082031 6.222656 -3.835938 6.359375 -3.546875 C 6.492188 -3.265625 6.5625 -2.921875 6.5625 -2.515625 C 6.5625 -1.671875 6.300781 -1.019531 5.78125 -0.5625 C 5.269531 -0.101562 4.53125 0.125 3.5625 0.125 C 3.09375 0.125 2.625 0.0820312 2.15625 0 C 1.6875 -0.0703125 1.269531 -0.179688 0.90625 -0.328125 Z M 0.90625 -2.34375 "/></g></g></g><g fill="#ffffff" fill-opacity="1"><g transform="translate(409.767799, 425.416144)"><g/></g></g><g fill="#ffffff" fill-opacity="1"><g transform="translate(413.084205, 425.416144)"><g><path d="M 6.40625 -7.015625 C 6.40625 -6.679688 6.332031 -6.390625 6.1875 -6.140625 C 6.039062 -5.898438 5.835938 -5.6875 5.578125 -5.5 C 5.316406 -5.3125 4.875 -5.09375 4.25 -4.84375 L 6.984375 -2.359375 C 7.410156 -3.210938 7.632812 -4 7.65625 -4.71875 L 6.734375 -4.890625 L 6.734375 -5.234375 L 9.703125 -5.234375 L 9.703125 -4.890625 L 8.796875 -4.71875 C 8.460938 -3.570312 8.039062 -2.617188 7.53125 -1.859375 L 9.015625 -0.5 L 10.078125 -0.34375 L 10.078125 0 L 7.84375 0 L 6.75 -1 C 6.289062 -0.601562 5.816406 -0.316406 5.328125 -0.140625 C 4.835938 0.0351562 4.300781 0.125 3.71875 0.125 C 2.65625 0.125 1.851562 -0.0820312 1.3125 -0.5 C 0.769531 -0.914062 0.5 -1.519531 0.5 -2.3125 C 0.5 -2.726562 0.578125 -3.085938 0.734375 -3.390625 C 0.890625 -3.691406 1.101562 -3.945312 1.375 -4.15625 C 1.644531 -4.375 2.066406 -4.59375 2.640625 -4.8125 C 1.992188 -5.445312 1.671875 -6.15625 1.671875 -6.9375 C 1.671875 -7.550781 1.875 -8.019531 2.28125 -8.34375 C 2.695312 -8.664062 3.300781 -8.828125 4.09375 -8.828125 C 4.84375 -8.828125 5.414062 -8.671875 5.8125 -8.359375 C 6.207031 -8.054688 6.40625 -7.609375 6.40625 -7.015625 Z M 3.90625 -0.421875 C 4.84375 -0.421875 5.640625 -0.753906 6.296875 -1.421875 L 3.0625 -4.390625 C 2.613281 -4.191406 2.285156 -3.925781 2.078125 -3.59375 C 1.878906 -3.257812 1.78125 -2.851562 1.78125 -2.375 C 1.78125 -1.75 1.960938 -1.265625 2.328125 -0.921875 C 2.691406 -0.585938 3.21875 -0.421875 3.90625 -0.421875 Z M 2.8125 -7.0625 C 2.8125 -6.363281 3.144531 -5.765625 3.8125 -5.265625 C 4.226562 -5.421875 4.523438 -5.570312 4.703125 -5.71875 C 4.890625 -5.863281 5.03125 -6.046875 5.125 -6.265625 C 5.21875 -6.484375 5.265625 -6.75 5.265625 -7.0625 C 5.265625 -7.894531 4.875 -8.3125 4.09375 -8.3125 C 3.632812 -8.3125 3.304688 -8.207031 3.109375 -8 C 2.910156 -7.789062 2.8125 -7.476562 2.8125 -7.0625 Z M 2.8125 -7.0625 "/></g></g></g><g fill="#ffffff" fill-opacity="1"><g transform="translate(423.402633, 425.416144)"><g/></g></g><g fill="#ffffff" fill-opacity="1"><g transform="translate(426.719039, 425.416144)"><g><path d="M 2.75 -3.90625 L 2.75 -0.515625 L 4.1875 -0.34375 L 4.1875 0 L 0.46875 0 L 0.46875 -0.34375 L 1.5 -0.515625 L 1.5 -8.1875 L 0.375 -8.359375 L 0.375 -8.703125 L 6.890625 -8.703125 L 6.890625 -6.609375 L 6.46875 -6.609375 L 6.265625 -8.015625 C 5.773438 -8.078125 5.078125 -8.109375 4.171875 -8.109375 L 2.75 -8.109375 L 2.75 -4.484375 L 5.3125 -4.484375 L 5.5 -5.53125 L 5.90625 -5.53125 L 5.90625 -2.859375 L 5.5 -2.859375 L 5.3125 -3.90625 Z M 2.75 -3.90625 "/></g></g></g><g fill="#ffffff" fill-opacity="1"><g transform="translate(434.096747, 425.416144)"><g><path d="M 2.84375 -0.515625 L 3.953125 -0.34375 L 3.953125 0 L 0.484375 0 L 0.484375 -0.34375 L 1.59375 -0.515625 L 1.59375 -8.1875 L 0.484375 -8.359375 L 0.484375 -8.703125 L 3.953125 -8.703125 L 3.953125 -8.359375 L 2.84375 -8.1875 Z M 2.84375 -0.515625 "/></g></g></g><g fill="#ffffff" fill-opacity="1"><g transform="translate(438.514304, 425.416144)"><g><path d="M 4.09375 -8.359375 L 2.75 -8.1875 L 2.75 -0.5625 L 4.453125 -0.5625 C 5.378906 -0.5625 6.054688 -0.601562 6.484375 -0.6875 L 6.890625 -2.5 L 7.3125 -2.5 L 7.1875 0 L 0.375 0 L 0.375 -0.34375 L 1.5 -0.515625 L 1.5 -8.1875 L 0.375 -8.359375 L 0.375 -8.703125 L 4.09375 -8.703125 Z M 4.09375 -8.359375 "/></g></g></g><g fill="#ffffff" fill-opacity="1"><g transform="translate(446.617476, 425.416144)"><g><path d="M 5.578125 0 L 5.359375 0 L 2.171875 -7.484375 L 2.171875 -0.515625 L 3.34375 -0.34375 L 3.34375 0 L 0.375 0 L 0.375 -0.34375 L 1.5 -0.515625 L 1.5 -8.1875 L 0.375 -8.359375 L 0.375 -8.703125 L 3.015625 -8.703125 L 5.84375 -2.078125 L 8.921875 -8.703125 L 11.40625 -8.703125 L 11.40625 -8.359375 L 10.296875 -8.1875 L 10.296875 -0.515625 L 11.40625 -0.34375 L 11.40625 0 L 7.890625 0 L 7.890625 -0.34375 L 9.046875 -0.515625 L 9.046875 -7.484375 Z M 5.578125 0 "/></g></g></g><g fill="#ffffff" fill-opacity="1"><g transform="translate(458.41274, 425.416144)"><g><path d="M 5.578125 0 L 5.359375 0 L 2.171875 -7.484375 L 2.171875 -0.515625 L 3.34375 -0.34375 L 3.34375 0 L 0.375 0 L 0.375 -0.34375 L 1.5 -0.515625 L 1.5 -8.1875 L 0.375 -8.359375 L 0.375 -8.703125 L 3.015625 -8.703125 L 5.84375 -2.078125 L 8.921875 -8.703125 L 11.40625 -8.703125 L 11.40625 -8.359375 L 10.296875 -8.1875 L 10.296875 -0.515625 L 11.40625 -0.34375 L 11.40625 0 L 7.890625 0 L 7.890625 -0.34375 L 9.046875 -0.515625 L 9.046875 -7.484375 Z M 5.578125 0 "/></g></g></g><g fill="#ffffff" fill-opacity="1"><g transform="translate(470.208005, 425.416144)"><g><path d="M 2.984375 -0.34375 L 2.984375 0 L 0.125 0 L 0.125 -0.34375 L 1.109375 -0.515625 L 4.078125 -8.765625 L 5.3125 -8.765625 L 8.375 -0.515625 L 9.484375 -0.34375 L 9.484375 0 L 5.8125 0 L 5.8125 -0.34375 L 6.96875 -0.515625 L 6.109375 -3.03125 L 2.6875 -3.03125 L 1.8125 -0.515625 Z M 4.375 -7.828125 L 2.890625 -3.609375 L 5.90625 -3.609375 Z M 4.375 -7.828125 "/></g></g></g><g fill="#ffffff" fill-opacity="1"><g transform="translate(479.788014, 425.416144)"><g><path d="M 8.765625 -8.703125 L 8.765625 -8.359375 L 7.765625 -8.1875 L 4.796875 -5.28125 L 8.5 -0.515625 L 9.4375 -0.34375 L 9.4375 0 L 7.3125 0 L 3.921875 -4.390625 L 2.75 -3.453125 L 2.75 -0.515625 L 3.984375 -0.34375 L 3.984375 0 L 0.375 0 L 0.375 -0.34375 L 1.5 -0.515625 L 1.5 -8.1875 L 0.375 -8.359375 L 0.375 -8.703125 L 3.859375 -8.703125 L 3.859375 -8.359375 L 2.75 -8.1875 L 2.75 -4.078125 L 6.90625 -8.1875 L 6.046875 -8.359375 L 6.046875 -8.703125 Z M 8.765625 -8.703125 "/></g></g></g><g fill="#ffffff" fill-opacity="1"><g transform="translate(489.368023, 425.416144)"><g><path d="M 2.84375 -0.515625 L 3.953125 -0.34375 L 3.953125 0 L 0.484375 0 L 0.484375 -0.34375 L 1.59375 -0.515625 L 1.59375 -8.1875 L 0.484375 -8.359375 L 0.484375 -8.703125 L 3.953125 -8.703125 L 3.953125 -8.359375 L 2.84375 -8.1875 Z M 2.84375 -0.515625 "/></g></g></g><g fill="#ffffff" fill-opacity="1"><g transform="translate(493.785579, 425.416144)"><g><path d="M 7.484375 -8.1875 L 6.3125 -8.359375 L 6.3125 -8.703125 L 9.28125 -8.703125 L 9.28125 -8.359375 L 8.15625 -8.1875 L 8.15625 0 L 7.53125 0 L 2.171875 -7.828125 L 2.171875 -0.515625 L 3.34375 -0.34375 L 3.34375 0 L 0.375 0 L 0.375 -0.34375 L 1.5 -0.515625 L 1.5 -8.1875 L 0.375 -8.359375 L 0.375 -8.703125 L 3.015625 -8.703125 L 7.484375 -2.25 Z M 7.484375 -8.1875 "/></g></g></g><g fill="#ffffff" fill-opacity="1"><g transform="translate(503.365588, 425.416144)"><g><path d="M 8.3125 -0.453125 C 7.8125 -0.285156 7.289062 -0.144531 6.75 -0.03125 C 6.21875 0.0703125 5.640625 0.125 5.015625 0.125 C 3.609375 0.125 2.507812 -0.253906 1.71875 -1.015625 C 0.9375 -1.773438 0.546875 -2.851562 0.546875 -4.25 C 0.546875 -5.769531 0.925781 -6.90625 1.6875 -7.65625 C 2.445312 -8.414062 3.566406 -8.796875 5.046875 -8.796875 C 6.097656 -8.796875 7.113281 -8.664062 8.09375 -8.40625 L 8.09375 -6.53125 L 7.65625 -6.53125 L 7.484375 -7.609375 C 7.179688 -7.828125 6.820312 -7.992188 6.40625 -8.109375 C 5.988281 -8.222656 5.550781 -8.28125 5.09375 -8.28125 C 3.988281 -8.28125 3.175781 -7.945312 2.65625 -7.28125 C 2.144531 -6.625 1.890625 -5.617188 1.890625 -4.265625 C 1.890625 -2.984375 2.15625 -2.015625 2.6875 -1.359375 C 3.21875 -0.703125 4 -0.375 5.03125 -0.375 C 5.394531 -0.375 5.773438 -0.414062 6.171875 -0.5 C 6.566406 -0.582031 6.867188 -0.6875 7.078125 -0.8125 L 7.078125 -3.28125 L 5.953125 -3.453125 L 5.953125 -3.796875 L 9.171875 -3.796875 L 9.171875 -3.453125 L 8.3125 -3.28125 Z M 8.3125 -0.453125 "/></g></g></g></svg>