<svg xmlns="http://www.w3.org/2000/svg" xmlns:xlink="http://www.w3.org/1999/xlink" width="1080" zoomAndPan="magnify" viewBox="0 0 810 809.999993" height="1080" preserveAspectRatio="xMidYMid meet" version="1.0"><defs><g/></defs><rect x="-81" width="972" fill="#ffffff" y="-80.999999" height="971.999992" fill-opacity="1"/><rect x="-81" width="972" fill="#ffffff" y="-80.999999" height="971.999992" fill-opacity="1"/><g fill="#000000" fill-opacity="1"><g transform="translate(265.876133, 408.685055)"><g><path d="M 1.8125 -6.84375 L 3.28125 -6.84375 L 4.03125 -3.265625 C 4.5 -2.722656 5.203125 -2.265625 6.140625 -1.890625 C 7.085938 -1.523438 8.066406 -1.34375 9.078125 -1.34375 C 12.253906 -1.34375 13.84375 -2.65625 13.84375 -5.28125 C 13.84375 -6.101562 13.539062 -6.796875 12.9375 -7.359375 C 12.332031 -7.921875 11.382812 -8.425781 10.09375 -8.875 C 8.175781 -9.507812 6.800781 -10.023438 5.96875 -10.421875 C 5.132812 -10.816406 4.425781 -11.28125 3.84375 -11.8125 C 3.269531 -12.34375 2.8125 -12.988281 2.46875 -13.75 C 2.125 -14.507812 1.953125 -15.445312 1.953125 -16.5625 C 1.953125 -18.519531 2.617188 -20.007812 3.953125 -21.03125 C 5.285156 -22.0625 7.242188 -22.578125 9.828125 -22.578125 C 11.691406 -22.578125 13.753906 -22.34375 16.015625 -21.875 L 16.015625 -16.5625 L 14.53125 -16.5625 L 13.78125 -19.625 C 12.65625 -20.445312 11.335938 -20.859375 9.828125 -20.859375 C 8.460938 -20.859375 7.410156 -20.601562 6.671875 -20.09375 C 5.941406 -19.59375 5.578125 -18.816406 5.578125 -17.765625 C 5.578125 -17.023438 5.878906 -16.390625 6.484375 -15.859375 C 7.097656 -15.335938 8.054688 -14.867188 9.359375 -14.453125 C 11.898438 -13.617188 13.644531 -12.894531 14.59375 -12.28125 C 15.539062 -11.664062 16.265625 -10.898438 16.765625 -9.984375 C 17.265625 -9.078125 17.515625 -8.007812 17.515625 -6.78125 C 17.515625 -2.039062 14.722656 0.328125 9.140625 0.328125 C 7.859375 0.328125 6.554688 0.21875 5.234375 0 C 3.910156 -0.207031 2.769531 -0.488281 1.8125 -0.84375 Z M 1.8125 -6.84375 "/></g></g></g><g fill="#000000" fill-opacity="1"><g transform="translate(284.834528, 408.685055)"><g><path d="M 7.1875 -11.1875 C 7.1875 -7.644531 7.671875 -5.113281 8.640625 -3.59375 C 9.617188 -2.082031 11.160156 -1.328125 13.265625 -1.328125 C 15.367188 -1.328125 16.90625 -2.085938 17.875 -3.609375 C 18.84375 -5.128906 19.328125 -7.65625 19.328125 -11.1875 C 19.328125 -14.707031 18.84375 -17.207031 17.875 -18.6875 C 16.90625 -20.164062 15.367188 -20.90625 13.265625 -20.90625 C 11.160156 -20.90625 9.617188 -20.164062 8.640625 -18.6875 C 7.671875 -17.207031 7.1875 -14.707031 7.1875 -11.1875 Z M 1.671875 -11.1875 C 1.671875 -18.78125 5.535156 -22.578125 13.265625 -22.578125 C 17.085938 -22.578125 19.972656 -21.613281 21.921875 -19.6875 C 23.878906 -17.769531 24.859375 -14.9375 24.859375 -11.1875 C 24.859375 -7.40625 23.867188 -4.539062 21.890625 -2.59375 C 19.910156 -0.644531 17.035156 0.328125 13.265625 0.328125 C 9.503906 0.328125 6.628906 -0.640625 4.640625 -2.578125 C 2.660156 -4.523438 1.671875 -7.394531 1.671875 -11.1875 Z M 1.671875 -11.1875 "/></g></g></g><g fill="#000000" fill-opacity="1"><g transform="translate(311.349646, 408.685055)"><g><path d="M 19.234375 -20.6875 L 16.234375 -21.125 L 16.234375 -22.328125 L 24.171875 -22.328125 L 24.171875 -21.125 L 21.3125 -20.6875 L 21.3125 0 L 19.359375 0 L 5.59375 -17.953125 L 5.59375 -1.671875 L 8.59375 -1.21875 L 8.59375 0 L 0.65625 0 L 0.65625 -1.21875 L 3.515625 -1.671875 L 3.515625 -20.6875 L 0.65625 -21.125 L 0.65625 -22.328125 L 8.296875 -22.328125 L 19.234375 -8.0625 Z M 19.234375 -20.6875 "/></g></g></g><g fill="#000000" fill-opacity="1"><g transform="translate(335.967262, 408.685055)"><g><path d="M 17.4375 -11.15625 C 17.4375 -14.375 16.847656 -16.734375 15.671875 -18.234375 C 14.492188 -19.742188 12.578125 -20.5 9.921875 -20.5 L 8.6875 -20.5 L 8.6875 -1.90625 C 9.75 -1.8125 10.71875 -1.765625 11.59375 -1.765625 C 13.03125 -1.765625 14.164062 -2.070312 15 -2.6875 C 15.84375 -3.3125 16.457031 -4.285156 16.84375 -5.609375 C 17.238281 -6.941406 17.4375 -8.789062 17.4375 -11.15625 Z M 11.203125 -22.328125 C 15.210938 -22.328125 18.171875 -21.421875 20.078125 -19.609375 C 21.992188 -17.796875 22.953125 -15.023438 22.953125 -11.296875 C 22.953125 -7.460938 22.035156 -4.609375 20.203125 -2.734375 C 18.378906 -0.867188 15.613281 0.0625 11.90625 0.0625 L 4.421875 0 L 0.59375 0 L 0.59375 -1.21875 L 3.46875 -1.671875 L 3.46875 -20.6875 L 0.59375 -21.125 L 0.59375 -22.328125 Z M 11.203125 -22.328125 "/></g></g></g><g fill="#000000" fill-opacity="1"><g transform="translate(360.584877, 408.685055)"><g><path d="M 13.953125 -2.03125 C 15.617188 -2.03125 16.90625 -2.492188 17.8125 -3.421875 C 18.71875 -4.359375 19.171875 -5.734375 19.171875 -7.546875 L 19.171875 -20.6875 L 16.1875 -21.125 L 16.1875 -22.328125 L 23.765625 -22.328125 L 23.765625 -21.125 L 21.234375 -20.6875 L 21.234375 -7.671875 C 21.234375 -5.097656 20.488281 -3.125 19 -1.75 C 17.519531 -0.375 15.398438 0.3125 12.640625 0.3125 C 9.648438 0.3125 7.359375 -0.378906 5.765625 -1.765625 C 4.171875 -3.160156 3.375 -5.175781 3.375 -7.8125 L 3.375 -20.6875 L 0.84375 -21.125 L 0.84375 -22.328125 L 11.484375 -22.328125 L 11.484375 -21.125 L 8.625 -20.6875 L 8.625 -7.578125 C 8.625 -5.785156 9.078125 -4.410156 9.984375 -3.453125 C 10.890625 -2.503906 12.210938 -2.03125 13.953125 -2.03125 Z M 13.953125 -2.03125 "/></g></g></g><g fill="#000000" fill-opacity="1"><g transform="translate(385.202493, 408.685055)"><g><path d="M 13.5625 0.328125 C 9.820312 0.328125 6.90625 -0.660156 4.8125 -2.640625 C 2.71875 -4.628906 1.671875 -7.382812 1.671875 -10.90625 C 1.671875 -14.726562 2.671875 -17.628906 4.671875 -19.609375 C 6.671875 -21.585938 9.628906 -22.578125 13.546875 -22.578125 C 16.140625 -22.578125 18.820312 -22.207031 21.59375 -21.46875 L 21.6875 -16.109375 L 20.1875 -16.109375 L 19.734375 -19.34375 C 18.265625 -20.332031 16.554688 -20.828125 14.609375 -20.828125 C 12.035156 -20.828125 10.15625 -20.023438 8.96875 -18.421875 C 7.78125 -16.816406 7.1875 -14.328125 7.1875 -10.953125 C 7.1875 -7.835938 7.804688 -5.460938 9.046875 -3.828125 C 10.296875 -2.191406 12.109375 -1.375 14.484375 -1.375 C 15.734375 -1.375 16.828125 -1.539062 17.765625 -1.875 C 18.703125 -2.207031 19.441406 -2.601562 19.984375 -3.0625 L 20.515625 -6.734375 L 22.03125 -6.734375 L 21.921875 -1.0625 C 20.921875 -0.675781 19.617188 -0.347656 18.015625 -0.078125 C 16.421875 0.191406 14.9375 0.328125 13.5625 0.328125 Z M 13.5625 0.328125 "/></g></g></g><g fill="#000000" fill-opacity="1"><g transform="translate(409.820109, 408.685055)"><g><path d="M 24.453125 -22.328125 L 24.453125 -21.125 L 21.71875 -20.6875 L 14.34375 -14.171875 L 24.171875 -1.671875 L 26.25 -1.21875 L 26.25 0 L 18.96875 0 L 10.625 -10.765625 L 8.6875 -9.09375 L 8.6875 -1.671875 L 11.90625 -1.21875 L 11.90625 0 L 0.578125 0 L 0.578125 -1.21875 L 3.453125 -1.671875 L 3.453125 -20.6875 L 0.578125 -21.125 L 0.578125 -22.328125 L 11.5625 -22.328125 L 11.5625 -21.125 L 8.6875 -20.6875 L 8.6875 -11.59375 L 18.859375 -20.6875 L 16.8125 -21.125 L 16.8125 -22.328125 Z M 24.453125 -22.328125 "/></g></g></g><g fill="#ff689a" fill-opacity="1"><g transform="translate(446.091592, 408.685055)"><g><path d="M 7.0625 -10.03125 L 7.0625 -1.328125 L 10.765625 -0.875 L 10.765625 0 L 1.203125 0 L 1.203125 -0.875 L 3.84375 -1.328125 L 3.84375 -21.015625 L 0.984375 -21.453125 L 0.984375 -22.328125 L 17.734375 -22.328125 L 17.734375 -16.984375 L 16.625 -16.984375 L 16.09375 -20.609375 C 14.851562 -20.753906 13.054688 -20.828125 10.703125 -20.828125 L 7.0625 -20.828125 L 7.0625 -11.53125 L 13.640625 -11.53125 L 14.15625 -14.1875 L 15.171875 -14.1875 L 15.171875 -7.328125 L 14.15625 -7.328125 L 13.640625 -10.03125 Z M 7.0625 -10.03125 "/></g></g></g><g fill="#ff689a" fill-opacity="1"><g transform="translate(465.049987, 408.685055)"><g><path d="M 7.296875 -1.328125 L 10.15625 -0.875 L 10.15625 0 L 1.234375 0 L 1.234375 -0.875 L 4.09375 -1.328125 L 4.09375 -21.015625 L 1.234375 -21.453125 L 1.234375 -22.328125 L 10.15625 -22.328125 L 10.15625 -21.453125 L 7.296875 -21.015625 Z M 7.296875 -1.328125 "/></g></g></g><g fill="#ff689a" fill-opacity="1"><g transform="translate(476.401718, 408.685055)"><g><path d="M 10.5 -21.453125 L 7.0625 -21.015625 L 7.0625 -1.4375 L 11.453125 -1.4375 C 13.816406 -1.4375 15.550781 -1.546875 16.65625 -1.765625 L 17.703125 -6.40625 L 18.78125 -6.40625 L 18.484375 0 L 0.984375 0 L 0.984375 -0.875 L 3.84375 -1.328125 L 3.84375 -21.015625 L 0.984375 -21.453125 L 0.984375 -22.328125 L 10.5 -22.328125 Z M 10.5 -21.453125 "/></g></g></g><g fill="#ff689a" fill-opacity="1"><g transform="translate(497.224326, 408.685055)"><g><path d="M 14.34375 0 L 13.765625 0 L 5.59375 -19.203125 L 5.59375 -1.328125 L 8.59375 -0.875 L 8.59375 0 L 0.984375 0 L 0.984375 -0.875 L 3.84375 -1.328125 L 3.84375 -21.015625 L 0.984375 -21.453125 L 0.984375 -22.328125 L 7.734375 -22.328125 L 15 -5.34375 L 22.921875 -22.328125 L 29.3125 -22.328125 L 29.3125 -21.453125 L 26.453125 -21.015625 L 26.453125 -1.328125 L 29.3125 -0.875 L 29.3125 0 L 20.265625 0 L 20.265625 -0.875 L 23.25 -1.328125 L 23.25 -19.203125 Z M 14.34375 0 "/></g></g></g><g fill="#000000" fill-opacity="1"><g transform="translate(277.664724, 427.017954)"><g><path d="M 6.0625 0 L 5.8125 0 L 2.359375 -8.109375 L 2.359375 -0.5625 L 3.625 -0.375 L 3.625 0 L 0.421875 0 L 0.421875 -0.375 L 1.625 -0.5625 L 1.625 -8.875 L 0.421875 -9.0625 L 0.421875 -9.4375 L 3.265625 -9.4375 L 6.34375 -2.265625 L 9.6875 -9.4375 L 12.390625 -9.4375 L 12.390625 -9.0625 L 11.171875 -8.875 L 11.171875 -0.5625 L 12.390625 -0.375 L 12.390625 0 L 8.5625 0 L 8.5625 -0.375 L 9.828125 -0.5625 L 9.828125 -8.109375 Z M 6.0625 0 "/></g></g></g><g fill="#000000" fill-opacity="1"><g transform="translate(290.470208, 427.017954)"><g><path d="M 2.0625 -4.734375 C 2.0625 -3.210938 2.3125 -2.113281 2.8125 -1.4375 C 3.320312 -0.757812 4.117188 -0.421875 5.203125 -0.421875 C 6.273438 -0.421875 7.066406 -0.757812 7.578125 -1.4375 C 8.085938 -2.113281 8.34375 -3.210938 8.34375 -4.734375 C 8.34375 -6.234375 8.085938 -7.3125 7.578125 -7.96875 C 7.066406 -8.632812 6.273438 -8.96875 5.203125 -8.96875 C 4.117188 -8.96875 3.320312 -8.632812 2.8125 -7.96875 C 2.3125 -7.3125 2.0625 -6.234375 2.0625 -4.734375 Z M 0.59375 -4.734375 C 0.59375 -7.929688 2.128906 -9.53125 5.203125 -9.53125 C 6.722656 -9.53125 7.867188 -9.125 8.640625 -8.3125 C 9.421875 -7.5 9.8125 -6.304688 9.8125 -4.734375 C 9.8125 -3.128906 9.414062 -1.914062 8.625 -1.09375 C 7.84375 -0.269531 6.703125 0.140625 5.203125 0.140625 C 3.703125 0.140625 2.554688 -0.265625 1.765625 -1.078125 C 0.984375 -1.898438 0.59375 -3.117188 0.59375 -4.734375 Z M 0.59375 -4.734375 "/></g></g></g><g fill="#000000" fill-opacity="1"><g transform="translate(300.87071, 427.017954)"><g><path d="M 2.21875 0 L 2.21875 -0.375 L 3.71875 -0.5625 L 3.71875 -8.828125 L 3.359375 -8.828125 C 2.171875 -8.828125 1.359375 -8.78125 0.921875 -8.6875 L 0.734375 -7.21875 L 0.265625 -7.21875 L 0.265625 -9.4375 L 8.5625 -9.4375 L 8.5625 -7.21875 L 8.078125 -7.21875 L 7.890625 -8.6875 C 7.753906 -8.71875 7.445312 -8.742188 6.96875 -8.765625 C 6.5 -8.796875 5.984375 -8.8125 5.421875 -8.8125 L 5.078125 -8.8125 L 5.078125 -0.5625 L 6.5625 -0.375 L 6.5625 0 Z M 2.21875 0 "/></g></g></g><g fill="#000000" fill-opacity="1"><g transform="translate(309.667889, 427.017954)"><g><path d="M 3.078125 -0.5625 L 4.296875 -0.375 L 4.296875 0 L 0.515625 0 L 0.515625 -0.375 L 1.734375 -0.5625 L 1.734375 -8.875 L 0.515625 -9.0625 L 0.515625 -9.4375 L 4.296875 -9.4375 L 4.296875 -9.0625 L 3.078125 -8.875 Z M 3.078125 -0.5625 "/></g></g></g><g fill="#000000" fill-opacity="1"><g transform="translate(314.463791, 427.017954)"><g><path d="M 2.0625 -4.734375 C 2.0625 -3.210938 2.3125 -2.113281 2.8125 -1.4375 C 3.320312 -0.757812 4.117188 -0.421875 5.203125 -0.421875 C 6.273438 -0.421875 7.066406 -0.757812 7.578125 -1.4375 C 8.085938 -2.113281 8.34375 -3.210938 8.34375 -4.734375 C 8.34375 -6.234375 8.085938 -7.3125 7.578125 -7.96875 C 7.066406 -8.632812 6.273438 -8.96875 5.203125 -8.96875 C 4.117188 -8.96875 3.320312 -8.632812 2.8125 -7.96875 C 2.3125 -7.3125 2.0625 -6.234375 2.0625 -4.734375 Z M 0.59375 -4.734375 C 0.59375 -7.929688 2.128906 -9.53125 5.203125 -9.53125 C 6.722656 -9.53125 7.867188 -9.125 8.640625 -8.3125 C 9.421875 -7.5 9.8125 -6.304688 9.8125 -4.734375 C 9.8125 -3.128906 9.414062 -1.914062 8.625 -1.09375 C 7.84375 -0.269531 6.703125 0.140625 5.203125 0.140625 C 3.703125 0.140625 2.554688 -0.265625 1.765625 -1.078125 C 0.984375 -1.898438 0.59375 -3.117188 0.59375 -4.734375 Z M 0.59375 -4.734375 "/></g></g></g><g fill="#000000" fill-opacity="1"><g transform="translate(324.864292, 427.017954)"><g><path d="M 8.125 -8.875 L 6.859375 -9.0625 L 6.859375 -9.4375 L 10.078125 -9.4375 L 10.078125 -9.0625 L 8.859375 -8.875 L 8.859375 0 L 8.1875 0 L 2.359375 -8.484375 L 2.359375 -0.5625 L 3.625 -0.375 L 3.625 0 L 0.421875 0 L 0.421875 -0.375 L 1.625 -0.5625 L 1.625 -8.875 L 0.421875 -9.0625 L 0.421875 -9.4375 L 3.265625 -9.4375 L 8.125 -2.453125 Z M 8.125 -8.875 "/></g></g></g><g fill="#000000" fill-opacity="1"><g transform="translate(335.264794, 427.017954)"><g/></g></g><g fill="#000000" fill-opacity="1"><g transform="translate(338.865236, 427.017954)"><g><path d="M 9.03125 -0.5 C 8.488281 -0.3125 7.921875 -0.15625 7.328125 -0.03125 C 6.742188 0.0820312 6.113281 0.140625 5.4375 0.140625 C 3.914062 0.140625 2.726562 -0.269531 1.875 -1.09375 C 1.019531 -1.914062 0.59375 -3.085938 0.59375 -4.609375 C 0.59375 -6.253906 1.003906 -7.484375 1.828125 -8.296875 C 2.660156 -9.117188 3.875 -9.53125 5.46875 -9.53125 C 6.613281 -9.53125 7.71875 -9.390625 8.78125 -9.109375 L 8.78125 -7.09375 L 8.3125 -7.09375 L 8.125 -8.265625 C 7.800781 -8.492188 7.410156 -8.664062 6.953125 -8.78125 C 6.503906 -8.90625 6.03125 -8.96875 5.53125 -8.96875 C 4.332031 -8.96875 3.453125 -8.609375 2.890625 -7.890625 C 2.335938 -7.179688 2.0625 -6.09375 2.0625 -4.625 C 2.0625 -3.238281 2.347656 -2.1875 2.921875 -1.46875 C 3.492188 -0.757812 4.335938 -0.40625 5.453125 -0.40625 C 5.847656 -0.40625 6.257812 -0.453125 6.6875 -0.546875 C 7.125 -0.640625 7.457031 -0.75 7.6875 -0.875 L 7.6875 -3.5625 L 6.46875 -3.75 L 6.46875 -4.125 L 9.953125 -4.125 L 9.953125 -3.75 L 9.03125 -3.5625 Z M 9.03125 -0.5 "/></g></g></g><g fill="#000000" fill-opacity="1"><g transform="translate(349.265737, 427.017954)"><g><path d="M 2.984375 -4.140625 L 2.984375 -0.5625 L 4.40625 -0.375 L 4.40625 0 L 0.5 0 L 0.5 -0.375 L 1.625 -0.5625 L 1.625 -8.875 L 0.421875 -9.0625 L 0.421875 -9.4375 L 4.484375 -9.4375 C 5.671875 -9.4375 6.546875 -9.234375 7.109375 -8.828125 C 7.671875 -8.429688 7.953125 -7.796875 7.953125 -6.921875 C 7.953125 -6.285156 7.78125 -5.738281 7.4375 -5.28125 C 7.09375 -4.820312 6.617188 -4.503906 6.015625 -4.328125 L 8.5625 -0.5625 L 9.59375 -0.375 L 9.59375 0 L 7.328125 0 L 4.671875 -4.140625 Z M 6.546875 -6.8125 C 6.546875 -7.53125 6.367188 -8.039062 6.015625 -8.34375 C 5.671875 -8.644531 5.0625 -8.796875 4.1875 -8.796875 L 2.984375 -8.796875 L 2.984375 -4.765625 L 4.234375 -4.765625 C 5.066406 -4.765625 5.660156 -4.921875 6.015625 -5.234375 C 6.367188 -5.546875 6.546875 -6.070312 6.546875 -6.8125 Z M 6.546875 -6.8125 "/></g></g></g><g fill="#000000" fill-opacity="1"><g transform="translate(358.871604, 427.017954)"><g><path d="M 3.25 -0.375 L 3.25 0 L 0.140625 0 L 0.140625 -0.375 L 1.203125 -0.5625 L 4.421875 -9.515625 L 5.765625 -9.515625 L 9.109375 -0.5625 L 10.296875 -0.375 L 10.296875 0 L 6.3125 0 L 6.3125 -0.375 L 7.578125 -0.5625 L 6.640625 -3.28125 L 2.921875 -3.28125 L 1.984375 -0.5625 Z M 4.75 -8.5 L 3.140625 -3.921875 L 6.421875 -3.921875 Z M 4.75 -8.5 "/></g></g></g><g fill="#000000" fill-opacity="1"><g transform="translate(369.272106, 427.017954)"><g><path d="M 6.03125 -6.640625 C 6.03125 -7.410156 5.847656 -7.960938 5.484375 -8.296875 C 5.128906 -8.628906 4.523438 -8.796875 3.671875 -8.796875 L 2.984375 -8.796875 L 2.984375 -4.328125 L 3.71875 -4.328125 C 4.507812 -4.328125 5.09375 -4.507812 5.46875 -4.875 C 5.84375 -5.238281 6.03125 -5.828125 6.03125 -6.640625 Z M 2.984375 -3.703125 L 2.984375 -0.5625 L 4.484375 -0.375 L 4.484375 0 L 0.5 0 L 0.5 -0.375 L 1.625 -0.5625 L 1.625 -8.875 L 0.421875 -9.0625 L 0.421875 -9.4375 L 3.96875 -9.4375 C 6.28125 -9.4375 7.4375 -8.507812 7.4375 -6.65625 C 7.4375 -5.6875 7.144531 -4.953125 6.5625 -4.453125 C 5.976562 -3.953125 5.140625 -3.703125 4.046875 -3.703125 Z M 2.984375 -3.703125 "/></g></g></g><g fill="#000000" fill-opacity="1"><g transform="translate(377.281689, 427.017954)"><g><path d="M 0.421875 0 L 0.421875 -0.375 L 1.625 -0.5625 L 1.625 -8.875 L 0.421875 -9.0625 L 0.421875 -9.4375 L 4.1875 -9.4375 L 4.1875 -9.0625 L 2.984375 -8.875 L 2.984375 -5.171875 L 7.421875 -5.171875 L 7.421875 -8.875 L 6.21875 -9.0625 L 6.21875 -9.4375 L 9.984375 -9.4375 L 9.984375 -9.0625 L 8.765625 -8.875 L 8.765625 -0.5625 L 9.984375 -0.375 L 9.984375 0 L 6.21875 0 L 6.21875 -0.375 L 7.421875 -0.5625 L 7.421875 -4.53125 L 2.984375 -4.53125 L 2.984375 -0.5625 L 4.1875 -0.375 L 4.1875 0 Z M 0.421875 0 "/></g></g></g><g fill="#000000" fill-opacity="1"><g transform="translate(387.68219, 427.017954)"><g><path d="M 3.078125 -0.5625 L 4.296875 -0.375 L 4.296875 0 L 0.515625 0 L 0.515625 -0.375 L 1.734375 -0.5625 L 1.734375 -8.875 L 0.515625 -9.0625 L 0.515625 -9.4375 L 4.296875 -9.4375 L 4.296875 -9.0625 L 3.078125 -8.875 Z M 3.078125 -0.5625 "/></g></g></g><g fill="#000000" fill-opacity="1"><g transform="translate(392.478091, 427.017954)"><g><path d="M 5.4375 0.140625 C 3.914062 0.140625 2.726562 -0.273438 1.875 -1.109375 C 1.019531 -1.941406 0.59375 -3.109375 0.59375 -4.609375 C 0.59375 -6.234375 1 -7.457031 1.8125 -8.28125 C 2.632812 -9.113281 3.851562 -9.53125 5.46875 -9.53125 C 6.445312 -9.53125 7.5 -9.414062 8.625 -9.1875 L 8.671875 -7.125 L 8.203125 -7.125 L 8 -8.34375 C 7.664062 -8.539062 7.28125 -8.691406 6.84375 -8.796875 C 6.414062 -8.910156 5.976562 -8.96875 5.53125 -8.96875 C 4.320312 -8.96875 3.441406 -8.613281 2.890625 -7.90625 C 2.335938 -7.195312 2.0625 -6.101562 2.0625 -4.625 C 2.0625 -3.25 2.347656 -2.203125 2.921875 -1.484375 C 3.503906 -0.765625 4.347656 -0.40625 5.453125 -0.40625 C 5.992188 -0.40625 6.5 -0.46875 6.96875 -0.59375 C 7.445312 -0.71875 7.820312 -0.890625 8.09375 -1.109375 L 8.359375 -2.515625 L 8.8125 -2.515625 L 8.765625 -0.296875 C 7.734375 -0.00390625 6.625 0.140625 5.4375 0.140625 Z M 5.4375 0.140625 "/></g></g></g><g fill="#000000" fill-opacity="1"><g transform="translate(402.083958, 427.017954)"><g><path d="M 0.984375 -2.546875 L 1.4375 -2.546875 L 1.6875 -1.265625 C 1.851562 -1.046875 2.148438 -0.847656 2.578125 -0.671875 C 3.003906 -0.503906 3.421875 -0.421875 3.828125 -0.421875 C 4.484375 -0.421875 4.992188 -0.585938 5.359375 -0.921875 C 5.734375 -1.265625 5.921875 -1.734375 5.921875 -2.328125 C 5.921875 -2.660156 5.847656 -2.9375 5.703125 -3.15625 C 5.566406 -3.375 5.378906 -3.5625 5.140625 -3.71875 C 4.910156 -3.875 4.644531 -4.003906 4.34375 -4.109375 C 4.050781 -4.210938 3.75 -4.316406 3.4375 -4.421875 C 3.125 -4.535156 2.820312 -4.65625 2.53125 -4.78125 C 2.238281 -4.914062 1.972656 -5.082031 1.734375 -5.28125 C 1.503906 -5.476562 1.316406 -5.726562 1.171875 -6.03125 C 1.035156 -6.332031 0.96875 -6.695312 0.96875 -7.125 C 0.96875 -7.882812 1.25 -8.472656 1.8125 -8.890625 C 2.375 -9.316406 3.15625 -9.53125 4.15625 -9.53125 C 4.914062 -9.53125 5.738281 -9.429688 6.625 -9.234375 L 6.625 -7.28125 L 6.171875 -7.28125 L 5.921875 -8.421875 C 5.441406 -8.773438 4.851562 -8.953125 4.15625 -8.953125 C 3.519531 -8.953125 3.023438 -8.820312 2.671875 -8.5625 C 2.316406 -8.3125 2.140625 -7.957031 2.140625 -7.5 C 2.140625 -7.195312 2.210938 -6.941406 2.359375 -6.734375 C 2.503906 -6.535156 2.691406 -6.363281 2.921875 -6.21875 C 3.148438 -6.082031 3.414062 -5.960938 3.71875 -5.859375 C 4.019531 -5.753906 4.320312 -5.644531 4.625 -5.53125 C 4.9375 -5.425781 5.242188 -5.300781 5.546875 -5.15625 C 5.847656 -5.019531 6.113281 -4.84375 6.34375 -4.625 C 6.570312 -4.414062 6.757812 -4.15625 6.90625 -3.84375 C 7.050781 -3.539062 7.125 -3.164062 7.125 -2.71875 C 7.125 -1.8125 6.84375 -1.109375 6.28125 -0.609375 C 5.71875 -0.109375 4.914062 0.140625 3.875 0.140625 C 3.363281 0.140625 2.851562 0.09375 2.34375 0 C 1.832031 -0.0820312 1.378906 -0.203125 0.984375 -0.359375 Z M 0.984375 -2.546875 "/></g></g></g><g fill="#000000" fill-opacity="1"><g transform="translate(410.093541, 427.017954)"><g/></g></g><g fill="#000000" fill-opacity="1"><g transform="translate(413.693983, 427.017954)"><g><path d="M 6.953125 -7.625 C 6.953125 -7.25 6.875 -6.925781 6.71875 -6.65625 C 6.5625 -6.394531 6.335938 -6.160156 6.046875 -5.953125 C 5.765625 -5.753906 5.289062 -5.523438 4.625 -5.265625 L 7.59375 -2.5625 C 8.039062 -3.488281 8.28125 -4.335938 8.3125 -5.109375 L 7.3125 -5.296875 L 7.3125 -5.671875 L 10.53125 -5.671875 L 10.53125 -5.296875 L 9.546875 -5.109375 C 9.191406 -3.867188 8.738281 -2.835938 8.1875 -2.015625 L 9.78125 -0.546875 L 10.953125 -0.375 L 10.953125 0 L 8.53125 0 L 7.328125 -1.09375 C 6.835938 -0.65625 6.328125 -0.335938 5.796875 -0.140625 C 5.265625 0.046875 4.679688 0.140625 4.046875 0.140625 C 2.878906 0.140625 2.003906 -0.0820312 1.421875 -0.53125 C 0.835938 -0.988281 0.546875 -1.644531 0.546875 -2.5 C 0.546875 -2.957031 0.628906 -3.347656 0.796875 -3.671875 C 0.972656 -4.003906 1.203125 -4.285156 1.484375 -4.515625 C 1.773438 -4.753906 2.238281 -4.988281 2.875 -5.21875 C 2.164062 -5.90625 1.8125 -6.675781 1.8125 -7.53125 C 1.8125 -8.195312 2.035156 -8.703125 2.484375 -9.046875 C 2.929688 -9.398438 3.582031 -9.578125 4.4375 -9.578125 C 5.25 -9.578125 5.867188 -9.410156 6.296875 -9.078125 C 6.734375 -8.742188 6.953125 -8.257812 6.953125 -7.625 Z M 4.234375 -0.46875 C 5.253906 -0.46875 6.125 -0.828125 6.84375 -1.546875 L 3.328125 -4.75 C 2.835938 -4.539062 2.476562 -4.253906 2.25 -3.890625 C 2.03125 -3.535156 1.921875 -3.097656 1.921875 -2.578125 C 1.921875 -1.898438 2.117188 -1.378906 2.515625 -1.015625 C 2.910156 -0.648438 3.484375 -0.46875 4.234375 -0.46875 Z M 3.046875 -7.671875 C 3.046875 -6.898438 3.410156 -6.242188 4.140625 -5.703125 C 4.585938 -5.867188 4.910156 -6.03125 5.109375 -6.1875 C 5.316406 -6.351562 5.46875 -6.550781 5.5625 -6.78125 C 5.664062 -7.019531 5.71875 -7.316406 5.71875 -7.671875 C 5.71875 -8.566406 5.289062 -9.015625 4.4375 -9.015625 C 3.945312 -9.015625 3.59375 -8.898438 3.375 -8.671875 C 3.15625 -8.453125 3.046875 -8.117188 3.046875 -7.671875 Z M 3.046875 -7.671875 "/></g></g></g><g fill="#000000" fill-opacity="1"><g transform="translate(424.896146, 427.017954)"><g/></g></g><g fill="#000000" fill-opacity="1"><g transform="translate(428.496588, 427.017954)"><g><path d="M 2.984375 -4.234375 L 2.984375 -0.5625 L 4.546875 -0.375 L 4.546875 0 L 0.5 0 L 0.5 -0.375 L 1.625 -0.5625 L 1.625 -8.875 L 0.421875 -9.0625 L 0.421875 -9.4375 L 7.484375 -9.4375 L 7.484375 -7.171875 L 7.03125 -7.171875 L 6.796875 -8.703125 C 6.273438 -8.765625 5.515625 -8.796875 4.515625 -8.796875 L 2.984375 -8.796875 L 2.984375 -4.875 L 5.765625 -4.875 L 5.984375 -6 L 6.40625 -6 L 6.40625 -3.09375 L 5.984375 -3.09375 L 5.765625 -4.234375 Z M 2.984375 -4.234375 "/></g></g></g><g fill="#000000" fill-opacity="1"><g transform="translate(436.506171, 427.017954)"><g><path d="M 3.078125 -0.5625 L 4.296875 -0.375 L 4.296875 0 L 0.515625 0 L 0.515625 -0.375 L 1.734375 -0.5625 L 1.734375 -8.875 L 0.515625 -9.0625 L 0.515625 -9.4375 L 4.296875 -9.4375 L 4.296875 -9.0625 L 3.078125 -8.875 Z M 3.078125 -0.5625 "/></g></g></g><g fill="#000000" fill-opacity="1"><g transform="translate(441.302072, 427.017954)"><g><path d="M 4.4375 -9.0625 L 2.984375 -8.875 L 2.984375 -0.609375 L 4.84375 -0.609375 C 5.84375 -0.609375 6.578125 -0.65625 7.046875 -0.75 L 7.484375 -2.703125 L 7.9375 -2.703125 L 7.8125 0 L 0.421875 0 L 0.421875 -0.375 L 1.625 -0.5625 L 1.625 -8.875 L 0.421875 -9.0625 L 0.421875 -9.4375 L 4.4375 -9.4375 Z M 4.4375 -9.0625 "/></g></g></g><g fill="#000000" fill-opacity="1"><g transform="translate(450.099252, 427.017954)"><g><path d="M 6.0625 0 L 5.8125 0 L 2.359375 -8.109375 L 2.359375 -0.5625 L 3.625 -0.375 L 3.625 0 L 0.421875 0 L 0.421875 -0.375 L 1.625 -0.5625 L 1.625 -8.875 L 0.421875 -9.0625 L 0.421875 -9.4375 L 3.265625 -9.4375 L 6.34375 -2.265625 L 9.6875 -9.4375 L 12.390625 -9.4375 L 12.390625 -9.0625 L 11.171875 -8.875 L 11.171875 -0.5625 L 12.390625 -0.375 L 12.390625 0 L 8.5625 0 L 8.5625 -0.375 L 9.828125 -0.5625 L 9.828125 -8.109375 Z M 6.0625 0 "/></g></g></g><g fill="#000000" fill-opacity="1"><g transform="translate(462.904736, 427.017954)"><g><path d="M 6.0625 0 L 5.8125 0 L 2.359375 -8.109375 L 2.359375 -0.5625 L 3.625 -0.375 L 3.625 0 L 0.421875 0 L 0.421875 -0.375 L 1.625 -0.5625 L 1.625 -8.875 L 0.421875 -9.0625 L 0.421875 -9.4375 L 3.265625 -9.4375 L 6.34375 -2.265625 L 9.6875 -9.4375 L 12.390625 -9.4375 L 12.390625 -9.0625 L 11.171875 -8.875 L 11.171875 -0.5625 L 12.390625 -0.375 L 12.390625 0 L 8.5625 0 L 8.5625 -0.375 L 9.828125 -0.5625 L 9.828125 -8.109375 Z M 6.0625 0 "/></g></g></g><g fill="#000000" fill-opacity="1"><g transform="translate(475.710232, 427.017954)"><g><path d="M 3.25 -0.375 L 3.25 0 L 0.140625 0 L 0.140625 -0.375 L 1.203125 -0.5625 L 4.421875 -9.515625 L 5.765625 -9.515625 L 9.109375 -0.5625 L 10.296875 -0.375 L 10.296875 0 L 6.3125 0 L 6.3125 -0.375 L 7.578125 -0.5625 L 6.640625 -3.28125 L 2.921875 -3.28125 L 1.984375 -0.5625 Z M 4.75 -8.5 L 3.140625 -3.921875 L 6.421875 -3.921875 Z M 4.75 -8.5 "/></g></g></g><g fill="#000000" fill-opacity="1"><g transform="translate(486.110733, 427.017954)"><g><path d="M 9.515625 -9.4375 L 9.515625 -9.0625 L 8.421875 -8.875 L 5.203125 -5.71875 L 9.234375 -0.5625 L 10.25 -0.375 L 10.25 0 L 7.953125 0 L 4.25 -4.765625 L 2.984375 -3.75 L 2.984375 -0.5625 L 4.328125 -0.375 L 4.328125 0 L 0.421875 0 L 0.421875 -0.375 L 1.625 -0.5625 L 1.625 -8.875 L 0.421875 -9.0625 L 0.421875 -9.4375 L 4.1875 -9.4375 L 4.1875 -9.0625 L 2.984375 -8.875 L 2.984375 -4.4375 L 7.5 -8.875 L 6.5625 -9.0625 L 6.5625 -9.4375 Z M 9.515625 -9.4375 "/></g></g></g><g fill="#000000" fill-opacity="1"><g transform="translate(496.511235, 427.017954)"><g><path d="M 3.078125 -0.5625 L 4.296875 -0.375 L 4.296875 0 L 0.515625 0 L 0.515625 -0.375 L 1.734375 -0.5625 L 1.734375 -8.875 L 0.515625 -9.0625 L 0.515625 -9.4375 L 4.296875 -9.4375 L 4.296875 -9.0625 L 3.078125 -8.875 Z M 3.078125 -0.5625 "/></g></g></g><g fill="#000000" fill-opacity="1"><g transform="translate(501.307125, 427.017954)"><g><path d="M 8.125 -8.875 L 6.859375 -9.0625 L 6.859375 -9.4375 L 10.078125 -9.4375 L 10.078125 -9.0625 L 8.859375 -8.875 L 8.859375 0 L 8.1875 0 L 2.359375 -8.484375 L 2.359375 -0.5625 L 3.625 -0.375 L 3.625 0 L 0.421875 0 L 0.421875 -0.375 L 1.625 -0.5625 L 1.625 -8.875 L 0.421875 -9.0625 L 0.421875 -9.4375 L 3.265625 -9.4375 L 8.125 -2.453125 Z M 8.125 -8.875 "/></g></g></g><g fill="#000000" fill-opacity="1"><g transform="translate(511.707626, 427.017954)"><g><path d="M 9.03125 -0.5 C 8.488281 -0.3125 7.921875 -0.15625 7.328125 -0.03125 C 6.742188 0.0820312 6.113281 0.140625 5.4375 0.140625 C 3.914062 0.140625 2.726562 -0.269531 1.875 -1.09375 C 1.019531 -1.914062 0.59375 -3.085938 0.59375 -4.609375 C 0.59375 -6.253906 1.003906 -7.484375 1.828125 -8.296875 C 2.660156 -9.117188 3.875 -9.53125 5.46875 -9.53125 C 6.613281 -9.53125 7.71875 -9.390625 8.78125 -9.109375 L 8.78125 -7.09375 L 8.3125 -7.09375 L 8.125 -8.265625 C 7.800781 -8.492188 7.410156 -8.664062 6.953125 -8.78125 C 6.503906 -8.90625 6.03125 -8.96875 5.53125 -8.96875 C 4.332031 -8.96875 3.453125 -8.609375 2.890625 -7.890625 C 2.335938 -7.179688 2.0625 -6.09375 2.0625 -4.625 C 2.0625 -3.238281 2.347656 -2.1875 2.921875 -1.46875 C 3.492188 -0.757812 4.335938 -0.40625 5.453125 -0.40625 C 5.847656 -0.40625 6.257812 -0.453125 6.6875 -0.546875 C 7.125 -0.640625 7.457031 -0.75 7.6875 -0.875 L 7.6875 -3.5625 L 6.46875 -3.75 L 6.46875 -4.125 L 9.953125 -4.125 L 9.953125 -3.75 L 9.03125 -3.5625 Z M 9.03125 -0.5 "/></g></g></g><path fill="#ff689a" d="M 172.335938 393.667969 C 175.773438 389.320312 175.691406 381.609375 175.691406 381.609375 C 175.691406 367.957031 160.253906 368.710938 157.066406 368.710938 C 151.539062 368.730469 144.589844 370.945312 141.066406 376.726562 C 137.542969 382.507812 130.769531 382.507812 130.769531 382.507812 C 130.769531 382.507812 122.6875 382.246094 122.617188 386.363281 C 122.617188 391.925781 130.988281 392.203125 130.988281 392.203125 C 130.988281 392.203125 138.339844 392.203125 144.867188 392.203125 C 151.390625 392.203125 150.648438 399.367188 150.648438 399.367188 C 150.648438 399.367188 150.6875 404.300781 145.609375 408.515625 C 140.53125 412.726562 140.515625 421.332031 140.515625 421.332031 C 140.515625 440.933594 170.089844 441.070312 173.941406 441.429688 C 177.792969 441.789062 182.777344 442.089844 192.070312 441.429688 C 223.554688 439.1875 239.355469 417.972656 239.632812 413.402344 C 239.90625 408.832031 236.285156 408.761719 235.761719 408.96875 C 235.238281 409.175781 238.144531 403.378906 236.546875 401.34375 C 234.949219 399.304688 233.078125 398.425781 230.105469 398.867188 C 227.132812 399.304688 226.25 401.179688 221.570312 402.664062 C 216.890625 404.152344 211.878906 402.386719 211.878906 402.386719 C 211.878906 402.386719 198.496094 398.367188 192.769531 398.148438 C 187.042969 397.925781 178.199219 399.609375 177.023438 399.632812 C 175.847656 399.660156 171.625 399.410156 171.625 396.65625 C 171.621094 396.65625 171.703125 394.628906 172.335938 393.667969 Z M 151.472656 382.332031 C 150.539062 382.332031 149.78125 381.570312 149.78125 380.636719 C 149.78125 379.707031 150.539062 378.945312 151.472656 378.945312 C 152.40625 378.945312 153.164062 379.707031 153.164062 380.636719 C 153.164062 381.570312 152.40625 382.332031 151.472656 382.332031 Z M 151.472656 382.332031 " fill-opacity="1" fill-rule="nonzero"/></svg>